<?xml version="1.0" encoding="UTF-8" standalone="no"?>
<!-- Created with Inkscape (http://www.inkscape.org/) -->

<svg
   version="1.1"
   id="svg2"
   width="4000"
   height="2666.6667"
   viewBox="0 0 4000 2666.6667"
   sodipodi:docname="19886.eps"
   xmlns:inkscape="http://www.inkscape.org/namespaces/inkscape"
   xmlns:sodipodi="http://sodipodi.sourceforge.net/DTD/sodipodi-0.dtd"
   xmlns="http://www.w3.org/2000/svg"
   xmlns:svg="http://www.w3.org/2000/svg">
  <defs
     id="defs6" />
  <sodipodi:namedview
     id="namedview4"
     pagecolor="#ffffff"
     bordercolor="#000000"
     borderopacity="0.25"
     inkscape:showpageshadow="2"
     inkscape:pageopacity="0.0"
     inkscape:pagecheckerboard="0"
     inkscape:deskcolor="#d1d1d1" />
  <g
     id="g8"
     inkscape:groupmode="layer"
     inkscape:label="ink_ext_XXXXXX"
     transform="matrix(1.3333333,0,0,-1.3333333,0,2666.6667)">
    <g
       id="g10"
       transform="scale(0.1)">
      <path
         d="M 0,0 H 30000 V 20000 H 0 Z"
         style="fill:#ffffff;fill-opacity:1;fill-rule:nonzero;stroke:none"
         id="path12" />
      <path
         d="m 27684.5,14716.6 c 0,0 -111.2,65.5 -183.9,39.3 -72.6,-26.3 -303.8,-97.4 -336.3,-74.3 -32.4,23.2 -20.7,59.7 17.8,73.7 38.6,13.9 221.1,80.5 209.4,100.5 -101.9,175.8 -532.4,283.4 -639.3,322.3 -34.4,12.4 -45.8,57.2 -9.5,70.3 0,0 243,8.2 518.7,-54 275.8,-62 537.8,-264.7 537.8,-264.7 l -114.7,-213.1"
         style="fill:#eea886;fill-opacity:1;fill-rule:nonzero;stroke:none"
         id="path14" />
      <path
         d="m 24418.5,3229.1 c 0,0 -332,-429.1 -286.5,-497.1 45.6,-68.1 394.7,-77.8 607.2,0 212.5,77.7 217.6,580.6 313.7,796.7 40.3,90.5 -45.9,357.5 -167,376.9 -121.1,19.4 -252.8,-37.5 -252.8,-37.5 0,0 125.6,-304.4 -214.6,-639"
         style="fill:#32658f;fill-opacity:1;fill-rule:nonzero;stroke:none"
         id="path16" />
      <path
         d="m 24630.9,3871.5 c 0,0 -48.3,-173.2 -73.8,-347.7 -21.2,-144.7 -258.1,-461.5 -248,-500.4 10.1,-38.8 283.4,-74 394.7,26.2 111.3,100.2 182.9,391.6 207.4,565.9 22.9,162.3 51.7,242.5 51.7,242.5 0,0 -225.8,120.4 -332,13.5"
         style="fill:#252e3b;fill-opacity:1;fill-rule:nonzero;stroke:none"
         id="path18" />
      <path
         d="m 27308.1,3222 c 0,0 -320,-422 -274.4,-490 45.5,-68.1 394.6,-77.8 607.1,0 212.5,77.7 217.6,580.6 313.7,796.7 40.2,90.5 -45.8,357.5 -167,376.9 -121.1,19.4 -263.1,-41.7 -263.1,-41.7 0,0 124,-307.3 -216.3,-641.9"
         style="fill:#32658f;fill-opacity:1;fill-rule:nonzero;stroke:none"
         id="path20" />
      <path
         d="m 27524.4,3863.9 c 0,0 -25.3,-199.1 -65.8,-340.1 -40.4,-140.8 -258,-461.5 -247.9,-500.4 10.2,-38.8 283.4,-74 394.7,26.2 111.3,100.2 197.3,390.3 207.4,565.9 10.2,175.6 -25.3,290.1 -25.3,290.1 0,0 -156.8,65.2 -263.1,-41.7"
         style="fill:#252e3b;fill-opacity:1;fill-rule:nonzero;stroke:none"
         id="path22" />
      <path
         d="m 25882.5,10858.6 c 0,0 -242.1,-1280.7 -307.5,-1601.1 -65.5,-320.4 -248.6,-1872.1 -268.3,-2135.9 -19.6,-263.9 -297.2,-1258 -284.1,-1352.2 13,-94.3 -411.7,-1987.2 -411.7,-1987.2 0,0 145.1,-112.1 298,-10.1 78.6,52.4 722.6,1622.9 845.9,2078.9 120.3,445.1 464,1517.4 528.8,1663.1 601.2,1353.6 606.2,1915.9 684.7,2003.8 78.6,87.9 85.4,-54.3 131.2,-249.1 45.7,-194.7 143.8,-1878.4 202.8,-2091.9 58.8,-213.6 13.1,-936.1 45.8,-1300.4 32.7,-364.4 176.3,-2012.6 176.3,-2012.6 0,0 111.3,-167.3 267.3,-4.3 33.6,35.1 269.5,1835.9 276,2269.4 6.6,433.5 13.6,1031.3 26.2,1218.7 121.2,1796.3 419.1,2052.9 -50.1,3324.1 -878.6,2380.3 -2161.3,186.8 -2161.3,186.8"
         style="fill:#252e3b;fill-opacity:1;fill-rule:nonzero;stroke:none"
         id="path24" />
      <path
         d="m 27838.4,11206.1 c 0,0 656.5,-1037.9 494.2,-2802.9 0,0 -1838.4,-193.8 -3030.3,-106.2 0,0 393.9,2004.3 591.3,2627.8 121.4,383.4 1944.8,281.3 1944.8,281.3"
         style="fill:#6ea2e8;fill-opacity:1;fill-rule:nonzero;stroke:none"
         id="path26" />
      <path
         d="m 22911.3,14367.7 c 0,0 -9.2,-56.9 172.7,-180.8 182,-123.8 76.1,331.8 76.1,331.8 l -248.8,-151"
         style="fill:#eea886;fill-opacity:1;fill-rule:nonzero;stroke:none"
         id="path28" />
      <path
         d="m 22817,14906.4 c 0,0 -59.2,175.7 -83,216.6 -23.7,40.9 66.8,119 111.4,13.9 44.6,-105.1 71.6,-172.3 71.6,-172.3 l -100,-58.2"
         style="fill:#eea886;fill-opacity:1;fill-rule:nonzero;stroke:none"
         id="path30" />
      <path
         d="m 22877.6,14740.7 -188,752.2 c -12.5,49.6 23,98.4 75.7,104.4 l 376.8,43.1 c 47.3,5.4 90.6,-26 98.1,-71.2 l 127.4,-767.5 c 8,-48.7 -28.4,-93.7 -79.6,-98.2 l -316.1,-27.7 c -43.8,-3.9 -84,23.8 -94.3,64.9"
         style="fill:#eb4747;fill-opacity:1;fill-rule:nonzero;stroke:none"
         id="path32" />
      <path
         d="m 22780.8,14797.3 c 0,0 -26.2,65.9 90.7,164.3 155.4,130.8 370.3,279.3 417.6,268.8 67.9,-15.1 50.2,-66.3 -52.6,-133 -102.9,-66.6 -137,-88.2 -137,-88.2 0,0 216,80.4 273.2,68.3 57.3,-12 77.4,-70.1 43.9,-89.6 -33.6,-19.5 -117.6,-48.6 -117.6,-48.6 0,0 95.1,22.1 115.2,-11.7 14.8,-25 29.5,-62.5 -54.9,-102.6 0,0 79.4,-47.9 0.9,-113.7 -78.6,-65.8 -91.4,-108.4 -87.5,-202.1 3.9,-93.6 -69.1,-235.4 -69.1,-235.4 l -292.3,93.9 c 0,0 -18.8,203 -50.9,262.2 -32.1,59.3 -79.6,167.4 -79.6,167.4"
         style="fill:#eea886;fill-opacity:1;fill-rule:nonzero;stroke:none"
         id="path34" />
      <path
         d="m 27653.3,15078.4 c -4.6,1.3 -6.8,2.1 -6.2,2.4 2.3,1 4.4,0.1 6.2,-2.4"
         style="fill:#6ea2e8;fill-opacity:1;fill-rule:nonzero;stroke:none"
         id="path36" />
      <path
         d="m 28019.8,13648 c 0,0 -218.5,-462.9 -340.3,-858.9 -80.2,-260.4 -174.7,-571.3 -131.4,-889.1 37.8,-276.6 334.5,-754.3 392.1,-887.5 l -2057.7,-153.9 c 32.3,104.2 128.9,1495.7 -51.6,1721.5 -215.9,270.1 -180.7,508 -167.7,721.6 0,0 -672.5,-104.8 -784.8,-112.3 -331.7,-22 -847.7,-146 -962.8,-48.6 l -1032,1163.4 410,234.4 575.9,-637 c 294.9,-269.8 120,-234.3 780.4,-72 198.1,48.6 1053.4,422.8 1189.6,470.6 118.8,41.8 203.3,42.3 603.3,198.3 37.5,14.7 634.9,26.4 634.9,26.4 0,0 264.8,-59.6 673.8,-60.8 35.7,-0.1 90.2,-2.2 155,-5.7 86.1,-4.7 190.6,-12 294.5,-20.7 v 0.1 l -0.4,0.1 c -267.2,114.1 -587.2,284.6 -559.8,300 14.5,8 35.7,309.1 12.5,340.5 120.3,-33.9 1922.2,-415.1 1950.8,-772.4 28.8,-360.5 -1584.3,-658 -1584.3,-658"
         style="fill:#6ea2e8;fill-opacity:1;fill-rule:nonzero;stroke:none"
         id="path38" />
      <path
         d="m 27317.8,14488.2 c 0,0 -652.1,-735.4 -896,-905.1 0,0 -332.5,205.3 -159.8,847.5 0,0 451.8,242 1055.8,57.6"
         style="fill:#eea886;fill-opacity:1;fill-rule:nonzero;stroke:none"
         id="path40" />
      <path
         d="m 25061.8,3566.5 v -449.3 h -60.7 v 347.2 l 60.7,102.1"
         style="fill:#32658f;fill-opacity:1;fill-rule:nonzero;stroke:none"
         id="path42" />
      <path
         d="m 27963.4,3566.5 v -449.3 h -60.7 v 347.2 l 60.7,102.1"
         style="fill:#32658f;fill-opacity:1;fill-rule:nonzero;stroke:none"
         id="path44" />
      <path
         d="m 26294.1,15683.2 c 0,0 54.7,-824.5 -111.3,-1024.9 0,0 421.8,72.4 524.1,207.3 102.3,134.8 -412.8,817.6 -412.8,817.6"
         style="fill:#252e3b;fill-opacity:1;fill-rule:nonzero;stroke:none"
         id="path46" />
      <path
         d="m 26897.6,16587.3 c 0,0 -511.1,31.1 -627.8,-547 -116.8,-578.1 80.9,-1096.9 162.9,-1181.8 82.1,-85 596.1,-41.2 728.4,256.5 132.3,297.7 317.2,511.5 300.9,772.2 -16.3,260.6 65.1,687.4 -564.4,700.1"
         style="fill:#eea886;fill-opacity:1;fill-rule:nonzero;stroke:none"
         id="path48" />
      <path
         d="m 27185.3,15245.6 c -71.2,-184 -113.2,-751.5 -101.7,-910.9 10.2,-142.9 -698.1,-179.8 -612.9,24.9 36.1,86.9 52.6,205.4 59.4,313 3.4,54.8 4.4,106.9 4.3,150.5 -0.1,72.5 -3.3,121.6 -3.3,121.6 0,0 725.4,484.9 654.2,300.9"
         style="fill:#eea886;fill-opacity:1;fill-rule:nonzero;stroke:none"
         id="path50" />
      <path
         d="m 26239.4,15821 c 0,0 -108.7,730.3 575.5,835.7 684.2,105.4 904.9,-349.1 959.3,-616.8 54.3,-267.7 -51.4,-1013 -51.4,-1013 0,0 -467.5,-364.8 -741.8,-453.9 0,0 257.4,787.9 194.4,1361.2 0,0 -555.1,-63.3 -918.2,36.6 0,0 -15.6,-118.7 -17.8,-149.8"
         style="fill:#252e3b;fill-opacity:1;fill-rule:nonzero;stroke:none"
         id="path52" />
      <path
         d="m 27038.6,14962.9 c 0,0 -128.2,-204.8 -508.5,-290.3 3.4,54.8 4.4,106.9 4.3,150.5 0,0 285.2,-32.3 504.2,139.8"
         style="fill:#a77860;fill-opacity:1;fill-rule:nonzero;stroke:none"
         id="path54" />
      <path
         d="m 28638.8,14279.9 c 0,0 -509.3,26.6 -732.3,178.5 86.1,-4.7 190.6,-12 294.5,-20.7 v 0.1 l 0.2,-0.1 207.9,-74.9 229.7,-82.9"
         style="fill:#5279ad;fill-opacity:1;fill-rule:nonzero;stroke:none"
         id="path56" />
      <path
         d="m 26689.7,14393.1 c -36.9,0 -69.7,6.3 -98.3,18.8 -82.2,36.1 -95.9,98.2 -96.4,101.3 l 21.3,25.3 c 0.4,-2.5 20.1,-71.4 88,-100.9 68.8,-29.8 209.4,-30.6 482.8,131.1 l 14.4,-30.5 c -169.2,-100 -307.2,-145.1 -411.8,-145.1"
         style="fill:#252e3b;fill-opacity:1;fill-rule:nonzero;stroke:none"
         id="path58" />
      <path
         d="m 15381.4,4315.8 c 0,0 36.5,-267.5 41,-307.6 4.6,-40.2 406,23.6 406,23.6 l 32.5,318.5 c 0,0 -429.3,3.3 -479.5,-34.5"
         style="fill:#da9b5b;fill-opacity:1;fill-rule:nonzero;stroke:none"
         id="path60" />
      <path
         d="m 15418.2,4042.1 c 0,0 -342.7,-193.6 -465.7,-263.8 -123,-70.3 -501.5,-106.8 -487.8,-179.8 13.6,-72.9 123.1,-237.1 634,-232.6 510.7,4.6 757,-31.9 811.7,54.8 54.8,86.6 -79.1,639.6 -79.1,639.6 0,0 -116.4,-76.2 -413.1,-18.2"
         style="fill:#fab46c;fill-opacity:1;fill-rule:nonzero;stroke:none"
         id="path62" />
      <path
         d="m 13553.6,3886.4 58.9,-338 c 0,0 434,26.1 452.2,85.4 18.3,59.3 -47.5,374.4 -47.5,374.4 l -463.6,-121.8"
         style="fill:#da9b5b;fill-opacity:1;fill-rule:nonzero;stroke:none"
         id="path64" />
      <path
         d="m 14068.3,3657.8 c 0,0 136.4,-460.6 40.6,-633.9 -95.7,-173.3 -405.9,-205.3 -519.9,-196.1 -114,9.1 -424.2,114 -711.5,100.3 -287.3,-13.7 -624.8,59.3 -542.7,237.2 82.1,177.8 708,123.1 899,287.3 191,164.2 363,186.1 363,186.1 0,0 1.8,-145.1 471.5,19.1"
         style="fill:#fab46c;fill-opacity:1;fill-rule:nonzero;stroke:none"
         id="path66" />
      <path
         d="m 12490.8,12442.9 -688.1,1022.2 599.1,332.9 592.4,-1046.9 -503.4,-308.2"
         style="fill:#514e58;fill-opacity:1;fill-rule:nonzero;stroke:none"
         id="path68" />
      <path
         d="m 12485.9,12534.4 -595.4,884.6 518.4,288.1 512.7,-906 -435.7,-266.7"
         style="fill:#3e3b42;fill-opacity:1;fill-rule:nonzero;stroke:none"
         id="path70" />
      <path
         d="m 12984.2,12317 c 0,0 -124.6,61.6 -50,210.5 74.6,149 22,199 22,199 l -559.6,-341 c 0,0 174.2,-265.3 239.9,-289.2 65.7,-23.9 396.2,119.3 347.7,220.7"
         style="fill:#eea886;fill-opacity:1;fill-rule:nonzero;stroke:none"
         id="path72" />
      <path
         d="m 12396.6,12385.5 c 0,0 -238.7,242 -259,274.7 -20.3,32.7 -118.2,180.3 -153.4,262.6 -35.1,82.3 164.8,18.7 207.3,-68.1 42.5,-86.8 90.8,-119.5 128.1,-145 37.3,-25.5 281.4,-96.2 314,-179.7 32.6,-83.7 -237,-144.5 -237,-144.5"
         style="fill:#eea886;fill-opacity:1;fill-rule:nonzero;stroke:none"
         id="path74" />
      <path
         d="m 12840.5,13015.7 c 0,0 -31.1,-83.6 -64.5,-35.3 -33.4,48.3 -42.8,202.4 29.7,182.1 72.5,-20.3 34.8,-146.8 34.8,-146.8"
         style="fill:#eea886;fill-opacity:1;fill-rule:nonzero;stroke:none"
         id="path76" />
      <path
         d="m 12749,13168.7 c 0,0 -23.3,-104.2 -65.4,-63.2 -31.6,30.9 -42,230.2 30.6,209.9 72.5,-20.2 34.8,-146.7 34.8,-146.7"
         style="fill:#eea886;fill-opacity:1;fill-rule:nonzero;stroke:none"
         id="path78" />
      <path
         d="m 14470.4,12211.4 c 0,0 -223.6,160.5 -320,240.7 -96.4,80.2 -357.6,213.2 -376.3,237.2 -18.7,23.9 -806,214.7 -846.8,265 -40.9,50.2 -112.6,-80.7 85.6,-162.6 198.3,-81.9 465.7,-243.6 467,-327 1.4,-83.4 -229.6,-62 -264.5,-124.3 -34.9,-62.3 -2.7,-52.7 27.4,-72.7 30.1,-20.1 291.6,69.4 389.7,13.3 98,-56.1 267.3,-32.7 342.6,-74.5 75.4,-41.8 442.2,-242.5 442.2,-242.5 l 53.1,247.4"
         style="fill:#eea886;fill-opacity:1;fill-rule:nonzero;stroke:none"
         id="path80" />
      <path
         d="m 13998.5,12117.3 -117.6,69 c 0,0 222.7,340.7 289.6,319.5 77.1,-24.4 171,-68 171,-68 l -343,-320.5"
         style="fill:#ead8cf;fill-opacity:1;fill-rule:nonzero;stroke:none"
         id="path82" />
      <path
         d="m 13958.4,12058.8 c 18.3,9.2 355.8,447 355.8,447 l 524.5,-168.8 -392.3,-519.9 -488,241.7"
         style="fill:#da9b5b;fill-opacity:1;fill-rule:nonzero;stroke:none"
         id="path84" />
      <path
         d="m 16905.6,8740 c 0,0 55.2,-855.4 -368.9,-1012.8 h -3317.9 c 0,0 853,-3697.3 853,-3758.9 l -551.2,-150.8 c 0,0 -1509.5,3164.6 -1581,3335.1 -89,212 -82.1,773 177.8,985.1 260,212 1929.2,811.9 2257.5,833.5 328.4,21.6 2530.7,-231.2 2530.7,-231.2"
         style="fill:#353a3d;fill-opacity:1;fill-rule:nonzero;stroke:none"
         id="path86" />
      <path
         d="m 16253.8,13431.4 c 0,0 0.9,-7.5 0,-28 -3.4,-75.8 -13.5,-281.3 -18.1,-504.5 -6,-283.6 -772.2,-96.6 -772.2,-96.6 0,0 34.6,306.5 -53.4,404.1 -88,97.6 843.7,225 843.7,225"
         style="fill:#eea886;fill-opacity:1;fill-rule:nonzero;stroke:none"
         id="path88" />
      <path
         d="m 15130.5,14562.7 c -18.2,-118.5 -250.8,-264.5 -86.6,-957.7 164.2,-693.3 433.3,-606.6 643.1,-561 209.8,45.6 571.6,168.3 713,720.2 141.3,551.8 -79.1,860.8 -243.3,1057 -164.2,196.1 -1026.2,-258.5 -1026.2,-258.5"
         style="fill:#eea886;fill-opacity:1;fill-rule:nonzero;stroke:none"
         id="path90" />
      <path
         d="m 17251.8,12488.7 c 0,0 -267.7,-1421 -168.8,-1869.4 -8.4,-182.6 -61.1,-518.6 -68.8,-626.5 -20.6,-287.3 -60.2,-1225.8 -60.2,-1225.8 -841.4,-499.4 -2556,156.4 -2579,204.2 -50.2,104 417.2,808.3 417.2,1006.7 0,198.4 -263.7,995.5 -263.7,995.5 0,0 -460.6,-647.7 -729.7,-775.4 -269.1,-127.6 -1172.1,1719.5 -1172.1,1719.5 l 497.1,364.8 c 0,0 606.6,-871.1 629.4,-898.4 22.8,-27.4 624.8,638.5 702.4,770.8 77.5,132.2 1007.9,647.6 1007.9,647.6 0,0 696.9,110.3 772.1,96.6 75.3,-13.7 954.7,-376 1016.2,-410.2"
         style="fill:#fab46c;fill-opacity:1;fill-rule:nonzero;stroke:none"
         id="path92" />
      <path
         d="m 14628,7323.6 c 0,0 615.7,-2982.6 704.7,-3003.2 88.9,-20.5 567.7,34.2 567.7,34.2 0,0 82.1,1635 47.9,2004.4 -34.2,369.4 -41,1074 -41,1074 L 14628,7323.6"
         style="fill:#2b2b2b;fill-opacity:1;fill-rule:nonzero;stroke:none"
         id="path94" />
      <path
         d="m 13082.6,12252.1 -81.4,121.1 c 0,0 -433.3,-240.3 -415.1,-298.1 18.3,-57.8 76.4,-131.3 76.4,-131.3 l 420.1,308.3"
         style="fill:#ead8cf;fill-opacity:1;fill-rule:nonzero;stroke:none"
         id="path96" />
      <path
         d="m 14995.9,14192.4 c 0,0 -60.1,10 -99.5,89.1 -39.3,79.1 -144.4,673.5 608.1,700.8 566.2,20.6 628.3,48.6 830.1,-150.5 228,-225 166.2,-1060.1 -80.8,-1428.4 0,0 -451.5,73.9 -638.5,413.7 -56.4,102.4 34,429.8 -174.6,387.6 -155.2,-31.4 -143.7,-423.4 -143.7,-423.4 l -101.1,-36.5 c 0,0 91.6,608.8 -200,447.6"
         style="fill:#e2d2ca;fill-opacity:1;fill-rule:nonzero;stroke:none"
         id="path98" />
      <path
         d="m 17251.8,12488.7 c 0,0 670,-539.8 -222.4,-1956.7 -401.4,-637.4 222.4,1956.7 222.4,1956.7"
         style="fill:#fab46c;fill-opacity:1;fill-rule:nonzero;stroke:none"
         id="path100" />
      <path
         d="m 19239.8,7311 h -6021 v 416.2 h 6021 V 7311"
         style="fill:#bdb69c;fill-opacity:1;fill-rule:nonzero;stroke:none"
         id="path102" />
      <path
         d="m 13602.7,2677.2 h -383.9 V 7311 h 383.9 V 2677.2"
         style="fill:#80756b;fill-opacity:1;fill-rule:nonzero;stroke:none"
         id="path104" />
      <path
         d="M 19239.8,2677.2 H 18856 V 7311 h 383.8 V 2677.2"
         style="fill:#80756b;fill-opacity:1;fill-rule:nonzero;stroke:none"
         id="path106" />
      <path
         d="m 15463.5,12802.3 v 85.1 c 0,0 621,185.7 774.2,97.4 l -2.1,-85.9 -772.1,-96.6"
         style="fill:#ead8cf;fill-opacity:1;fill-rule:nonzero;stroke:none"
         id="path108" />
      <path
         d="m 12952.7,13968.2 c 0,-70.6 -57.2,-127.8 -127.8,-127.8 -70.6,0 -127.8,57.2 -127.8,127.8 0,70.6 57.2,127.8 127.8,127.8 70.6,0 127.8,-57.2 127.8,-127.8"
         style="fill:#b6d1ed;fill-opacity:1;fill-rule:nonzero;stroke:none"
         id="path110" />
      <path
         d="m 12463.1,14583.2 c 0,-134.5 -109.1,-243.6 -243.6,-243.6 -134.5,0 -243.6,109.1 -243.6,243.6 0,134.5 109.1,243.6 243.6,243.6 134.5,0 243.6,-109.1 243.6,-243.6"
         style="fill:#ebb4d2;fill-opacity:1;fill-rule:nonzero;stroke:none"
         id="path112" />
      <path
         d="m 12955.2,14684.5 c 0,-55.9 -45.4,-101.3 -101.4,-101.3 -55.9,0 -101.2,45.4 -101.2,101.3 0,56 45.3,101.3 101.2,101.3 56,0 101.4,-45.3 101.4,-101.3"
         style="fill:#ffe3b2;fill-opacity:1;fill-rule:nonzero;stroke:none"
         id="path114" />
      <path
         d="m 14375,8971.2 c 0,0 1176.3,-856.6 1965.6,-654.5 553.1,141.7 613.4,450.3 613.4,450.3 l -2579,204.2"
         style="fill:#ead8cf;fill-opacity:1;fill-rule:nonzero;stroke:none"
         id="path116" />
      <path
         d="m 13753.2,11383.9 -338.4,-326.5 199,522.2 z"
         style="fill:#da9b5b;fill-opacity:1;fill-rule:nonzero;stroke:none"
         id="path118" />
      <path
         d="m 18646.7,14130.7 c 0,0 -88.3,173 -118.8,211.7 -30.5,38.7 46.8,134.3 108.8,32.3 62,-102.1 100.1,-167.6 100.1,-167.6 l -90.1,-76.4"
         style="fill:#eea886;fill-opacity:1;fill-rule:nonzero;stroke:none"
         id="path120" />
      <path
         d="m 18736.9,13956.1 -312.7,751.4 c -20.6,49.5 6.6,105.9 58.2,120.6 l 368.7,104.9 c 46.2,13.1 94.6,-12.6 109.6,-58.3 l 254.8,-776.9 c 16.1,-49.3 -12.8,-102 -63,-114.7 l -310.7,-79.3 c -43.1,-11.1 -87.8,11.2 -104.9,52.3"
         style="fill:#514e58;fill-opacity:1;fill-rule:nonzero;stroke:none"
         id="path122" />
      <path
         d="m 18628.7,14011.5 c 0,0 -37,64.3 63.2,185.3 133.2,160.6 322.9,349.2 371.7,345.8 70.4,-4.8 61.3,-60.8 -30.3,-146.5 -91.5,-85.7 -121.9,-113.5 -121.9,-113.5 0,0 202,118 261.2,114.7 59.1,-3.4 88.8,-60.5 58.6,-86.2 -30.2,-25.6 -109.2,-69.3 -109.2,-69.3 0,0 91.2,38.2 116.8,6.3 19,-23.5 39.9,-60.2 -37.6,-115.3 0,0 87.2,-37.1 19.8,-118 -67.4,-80.9 -73.2,-127.3 -53.7,-223.9 19.4,-96.6 -29.8,-255.6 -29.8,-255.6 l -304.9,19.5 c 0,0 -54.8,239.3 -96.6,295.6 -41.9,56.4 -107.3,161.1 -107.3,161.1"
         style="fill:#eea886;fill-opacity:1;fill-rule:nonzero;stroke:none"
         id="path124" />
      <path
         d="m 18919.7,14830.6 c 2.6,-19.7 -11.4,-37.7 -31,-40.2 -19.7,-2.5 -37.7,11.4 -40.2,31.1 -2.5,19.7 11.4,37.7 31.1,40.2 19.7,2.5 37.6,-11.4 40.1,-31.1"
         style="fill:#38373d;fill-opacity:1;fill-rule:nonzero;stroke:none"
         id="path126" />
      <path
         d="m 20621.6,3434.9 c 0,0 -151.4,-226.6 -363.8,-275.5 -212.4,-48.9 -421.6,-126.8 -423.2,-260.8 -1.6,-134 614.1,-213.9 857.1,-78.8 362.7,201.6 399.6,140.9 439.8,241.6 40.2,100.9 -48.3,370.4 -45.7,402.4 3.3,39.7 -464.2,-28.9 -464.2,-28.9"
         style="fill:#232729;fill-opacity:1;fill-rule:nonzero;stroke:none"
         id="path128" />
      <path
         d="m 20645.1,3546.6 c 0,0 -27.6,-109.4 -23.5,-111.7 4.1,-2.3 478.6,-58.9 464.2,28.9 -11.6,71.3 -28.2,148.6 -28.2,148.6 l -412.5,-65.8"
         style="fill:#81807e;fill-opacity:1;fill-rule:nonzero;stroke:none"
         id="path130" />
      <path
         d="m 21786.4,3421.8 c 0,0 -108,-216.6 -292.5,-290.4 -197.2,-78.9 -355.4,-169.6 -351.8,-300.2 3.6,-130.6 482.1,-262.9 830.3,-12.3 220,158.3 289.7,159.1 325,258.8 35.3,99.7 -61.3,358.9 -59.9,390.2 1.6,38.7 -451.1,-46.1 -451.1,-46.1"
         style="fill:#232729;fill-opacity:1;fill-rule:nonzero;stroke:none"
         id="path132" />
      <path
         d="m 21781,3534.4 c 0,0 1.3,-110.5 5.4,-112.6 4.1,-2.1 462.7,-39.8 451.1,46.1 -9.4,68.2 -44.6,150.7 -44.6,150.7 l -411.9,-84.2"
         style="fill:#81807e;fill-opacity:1;fill-rule:nonzero;stroke:none"
         id="path134" />
      <path
         d="m 20099.6,10153.5 c 0,0 -282.9,-1573 -380.2,-2145.5 -82.8,-487.2 -148.4,-1221.2 -108.7,-1573 49.1,-435.4 942.4,-2771.7 916.7,-2899.4 -25.8,-127.7 672.6,-57.6 672.6,-57.6 0,0 -686.2,2764 -592.6,3232.5 69.4,347 446.4,2442.7 539.5,2324.5 93.2,-118.2 208.7,-2175.6 277.7,-2517.1 68.9,-341.4 280.7,-3039.9 280.7,-3039.9 0,0 473.4,-69.8 599.9,37.2 0,0 57.5,2304.1 13.6,2944.4 -16.8,244 285.9,2925.7 -102.2,4005.3 -205.1,570.5 -2117,-311.4 -2117,-311.4"
         style="fill:#1e3a5e;fill-opacity:1;fill-rule:nonzero;stroke:none"
         id="path136" />
      <path
         d="m 23454.5,11808.2 c 0,-26.4 -49.9,-132 -129.4,-283.8 -116.3,232.7 -207.7,423.8 -237.6,494 -98,231.5 -603.2,762.2 -603.2,762.2 l -0.2,-1.1 -0.1,-0.6 -0.2,-0.6 -0.6,-2.2 c -0.3,-1.3 -0.7,-2.8 -1.2,-4.5 -0.3,-0.9 -0.6,-1.9 -0.7,-2.9 l -0.7,-2.1 c -27.5,-102.4 -196.3,-742.9 -202.5,-1058.4 -6.9,-343.4 -36.9,-1317.1 -36.9,-1317.1 0,0 -1000.8,-220.6 -2141.6,-237.6 0,0 -11.4,270.2 -15.6,676.3 -1.8,169.9 28.9,488.8 20.4,784.6 0,1.6 -0.1,3.1 -0.1,4.6 0,3.8 -0.2,7.5 -0.3,11.2 -0.2,1.4 -0.2,2.5 -0.2,3.8 v 0.7 c -5.4,162.6 9.3,323.1 -21,440.1 l -25.2,155.9 c -66.9,-228.8 -417.1,-636.8 -417.1,-636.8 -561.4,-729.2 -795,1832.7 -910,2005.1 l 523.3,144.6 265.5,-1062.9 121.2,349.9 v 0.1 l 129.7,374.2 c 14.6,11.7 169,531.2 294.4,590.8 127.9,60.9 449,204.5 588.7,281 71.2,39 138.6,74.6 196.8,101.3 l 8.9,4 0.1,0.1 c 96.3,44.1 160.3,73.2 160.3,73.2 h 0.3 c 2.3,0.2 17.4,1.7 41.9,4 134.3,12.8 551.7,51.9 691.6,60.1 11.5,0.7 21.2,1.1 28.7,1.3 6.4,0.2 11.1,0.3 14,0.1 17.8,-1.1 103.7,-31.1 216.9,-74.1 v 0 c 4.3,-1.6 8.6,-3.3 13,-5 5.3,-2 10.6,-4 16,-6 9.8,-3.8 19.7,-7.6 29.9,-11.5 20.3,-7.9 41.1,-16.1 62.2,-24.4 7.2,-2.9 14.5,-5.7 22,-8.7 226.3,-89.8 479.3,-211.2 547.2,-245.1 134.9,-67.3 189.6,-192.8 314.5,-563.7 189.3,-606.5 429.2,-1534.8 436.7,-1763.8 0.1,-3.6 0.2,-7 0.2,-10.3"
         style="fill:#fab46c;fill-opacity:1;fill-rule:nonzero;stroke:none"
         id="path138" />
      <path
         d="m 21792.4,14585.8 c -6,-300.5 -587.8,-464.9 -587.8,-464.9 0,0 -243.3,305.1 -185.2,334.3 22.8,11.5 32.1,57 34.9,108.1 2.7,48.6 -0.5,102.2 -3.3,136.3 -1.7,21.2 -3.4,34.9 -3.4,34.9 0,0 83.2,87.7 188.9,192.2 184.8,182.7 438.9,416.8 439.3,323.7 0,-5 -0.7,-10.8 -2.2,-17.7 -44.6,-209.5 118.8,-646.9 118.8,-646.9"
         style="fill:#eea886;fill-opacity:1;fill-rule:nonzero;stroke:none"
         id="path140" />
      <path
         d="m 21568.3,15026 h -0.1 c -1.1,-1.8 -25.8,-38.7 -67.9,-91.7 -89.3,-112.3 -257.2,-296.9 -446,-371 2.7,48.6 -0.5,102.2 -3.3,136.3 -19.3,0.4 -38.6,2.7 -57.8,6.9 51.8,90.4 126.5,185.2 126.5,185.2 l 116.8,35 331.8,99.3"
         style="fill:#a77860;fill-opacity:1;fill-rule:nonzero;stroke:none"
         id="path142" />
      <path
         d="m 21680,15246.3 c -50.4,-109.5 -98.1,-188.9 -111.7,-220.3 h -0.1 c -8.8,-20.5 -32.8,-53.9 -67.9,-91.7 -95.9,-103.3 -274.1,-239.5 -449.3,-234.7 -19.3,0.4 -38.6,2.7 -57.8,6.9 -70.7,15.5 -154.2,48.4 -200.2,138.3 -363,710.7 -100.2,1291.8 -100.2,1291.8 0,0 992.5,280.6 1147.7,-18.2 109,-209.5 -42.3,-614.9 -160.5,-872.1"
         style="fill:#eea886;fill-opacity:1;fill-rule:nonzero;stroke:none"
         id="path144" />
      <path
         d="m 20692.8,16136.6 c 0,0 -92.1,5.1 -114.9,179.8 -22.6,172.7 23,220.5 23,220.5 0,0 409.7,171.5 556.8,193.8 147.2,22.3 508.9,43.7 593.7,-53.2 0,0 206.1,47.8 262.2,-294.2 89.1,-542.6 -303.4,-1069.5 -303.4,-1069.5 0,0 3.3,354.5 -74.8,401.4 -78.3,47 -145.7,-64.7 -145.7,-64.7 l -159.9,-28.6 c 0,0 242.9,524.4 -48.5,543.9 -291.4,19.4 -421.7,-59.6 -588.5,-29.2"
         style="fill:#fccca2;fill-opacity:1;fill-rule:nonzero;stroke:none"
         id="path146" />
      <path
         d="m 21494.1,15791.8 c 15.2,156.2 297.6,215.8 278.7,52.1 -18.9,-163.7 -158,-321 -222.3,-315.4 -64.2,5.5 -68,144.3 -56.4,263.3"
         style="fill:#eea886;fill-opacity:1;fill-rule:nonzero;stroke:none"
         id="path148" />
      <path
         d="m 21205.5,14120.9 c 0,0 62.4,-249.7 40,-319.6 0,0 -137.3,-49.9 -236,12.5 0,0 69.9,174.8 196,307.1"
         style="fill:#323657;fill-opacity:1;fill-rule:nonzero;stroke:none"
         id="path150" />
      <path
         d="m 20874.3,13818.9 c 0,0 194.5,-150.3 586.3,-26.2 l -256,328.2 -330.3,-302"
         style="fill:#e6a563;fill-opacity:1;fill-rule:nonzero;stroke:none"
         id="path152" />
      <path
         d="m 20974.9,13871.2 c 0,0 127.8,-98.7 385.1,-17.2 l -154.5,266.9 -230.6,-249.7"
         style="fill:#d9c8c0;fill-opacity:1;fill-rule:nonzero;stroke:none"
         id="path154" />
      <path
         d="m 22040.9,10032.3 c 0,0 118.2,-145.5 308.6,-231.6 l 640.4,1151.8 -331.8,641.4 c 0,0 -602.2,-1449.2 -617.2,-1561.6"
         style="fill:#3c4145;fill-opacity:1;fill-rule:nonzero;stroke:none"
         id="path156" />
      <path
         d="m 22027,14443.2 -234.6,142.6 c 0,0 -6.6,-128.7 -587.8,-464.9 l 165,-464.8 657.4,787.1"
         style="fill:#f5e2d9;fill-opacity:1;fill-rule:nonzero;stroke:none"
         id="path158" />
      <path
         d="m 21050,14520.9 c 0,0 9.2,-138.9 154.6,-400 l -322.1,-419.9 -23.5,681 191,138.9"
         style="fill:#f5e2d9;fill-opacity:1;fill-rule:nonzero;stroke:none"
         id="path160" />
      <path
         d="m 22195.2,10197 c 0,0 -76.2,-187.6 -176.7,-217.5 -100.6,-29.9 -195.8,-89.7 -239.2,-160.4 -43.5,-70.7 492,-266.4 492,-266.4 0,0 220.2,345.3 201.1,494.8 -19,149.5 -277.2,149.5 -277.2,149.5"
         style="fill:#de9d7d;fill-opacity:1;fill-rule:nonzero;stroke:none"
         id="path162" />
      <path
         d="m 22480.6,12766.6 c 0,0 331.4,-483.5 280.2,-945.6 l -777,-1764.2 c 0,0 245.9,-212.1 454,-299.1 0,0 908,1765.9 1016.7,2050.5 0,0 -358.3,1066.8 -973.9,958.4"
         style="fill:#fab46c;fill-opacity:1;fill-rule:nonzero;stroke:none"
         id="path164" />
      <path
         d="m 21731,9825.7 701.3,-345.2 -26.9,-280 -747.8,481.1 73.4,144.1"
         style="fill:#1e3a5e;fill-opacity:1;fill-rule:nonzero;stroke:none"
         id="path166" />
      <path
         d="m 21693,3478 c 0,0 409.5,-91.8 623.4,37.2 l 12.6,210.5 c 0,0 -327.5,-64.3 -670,-27.1 l 34,-220.6"
         style="fill:#172c47;fill-opacity:1;fill-rule:nonzero;stroke:none"
         id="path168" />
      <path
         d="m 20511.4,3513.6 c 0,0 150.4,-136.5 706.8,-35.6 l -60.8,247.7 c 0,0 -354.2,-87 -687.7,0 l 41.7,-212.1"
         style="fill:#172c47;fill-opacity:1;fill-rule:nonzero;stroke:none"
         id="path170" />
      <path
         d="m 19640.5,13030.6 c 0.5,-103.5 -32.5,-792 -32.5,-792 l -88.7,442.1 121.2,349.9"
         style="fill:#e6a563;fill-opacity:1;fill-rule:nonzero;stroke:none"
         id="path172" />
      <path
         d="m 5460.02,11359.2 c 0,0 -24.91,114.7 -45.59,135.4 -20.67,20.6 -39.78,135 -61.18,157.2 -74.5,77.7 -113.94,63 -130.02,72.1 -16.07,9.3 21.21,-59.7 30.4,-103.3 9.19,-43.7 16.2,-104.1 33.8,-110 17.59,-5.8 127.75,-191.4 172.59,-151.4"
         style="fill:#fac5b1;fill-opacity:1;fill-rule:nonzero;stroke:none"
         id="path174" />
      <path
         d="m 3487.49,3683.6 c 0,0 -80.98,-215.6 -193.63,-266.8 -112.65,-51.2 -367.84,-288 -470.25,-305 -102.41,-17.1 -348.2,-36.4 -361.83,-166.1 -13.67,-129.8 12.79,-247.5 507.77,-179.3 495.01,68.3 962.69,297.1 962.69,297.1 0,0 99.91,501.5 -60.99,749.2 -160.91,247.6 -383.76,-129.1 -383.76,-129.1"
         style="fill:#d88a51;fill-opacity:1;fill-rule:nonzero;stroke:none"
         id="path176" />
      <path
         d="m 4132.39,3820.3 c 0,0 -121.64,-214.1 -203.57,-261.9 -81.94,-47.7 -286.76,-344.7 -440.37,-406.2 -153.62,-61.4 -522.31,-191.2 -481.35,-341.4 40.98,-150.1 696.41,-225.2 1048.03,58.1 351.62,283.3 440.37,297 450.61,406.2 10.24,109.3 -48.44,566.5 -26.13,611 22.32,44.3 -347.22,-65.8 -347.22,-65.8"
         style="fill:#f8a262;fill-opacity:1;fill-rule:nonzero;stroke:none"
         id="path178" />
      <path
         d="m 2603.95,8904.9 c 0,0 -806.45,-1044.6 -714.29,-1482.4 92.17,-437.8 315.25,-698.9 353.48,-806.4 38.23,-107.6 1221.02,-2688.2 1236.4,-2895.6 15.36,-207.4 391.71,-7.7 391.71,92.2 0,99.8 -307.23,1328.7 -284.18,1682 23.03,353.3 -499.24,1129 -499.24,1298 0,169 -161.31,537.7 215.05,983.1 376.35,445.5 721.98,998.5 721.98,998.5 0,0 261.14,-1013.9 253.45,-1121.4 -7.67,-107.5 -76.8,-476.1 -53.76,-722 23.05,-245.7 -38.41,-2957 -92.16,-3110.6 0,0 184.33,-107.5 322.58,30.8 138.25,138.2 514.58,1712.7 622.11,2004.6 107.54,291.9 -15.35,990.8 0,1190.5 15.37,199.7 422.43,1497.7 422.43,1682 0,184.3 -576.03,760.4 -2895.56,176.7"
         style="fill:#fac5b1;fill-opacity:1;fill-rule:nonzero;stroke:none"
         id="path180" />
      <path
         d="m 5622.61,9931.7 c 0.17,-20.7 0.17,-41.4 0,-62.1 -0.33,-86.8 -3.14,-173.7 -7.77,-260.5 -3.46,-63.3 -7.92,-126.7 -13.38,-189.8 -8.27,-100.5 -18.7,-201 -30.59,-301.4 -5.8,-47.9 -11.75,-95.7 -18.03,-143.5 -14.54,-111.3 -30.43,-222.6 -46.78,-333.6 -6.29,-43.1 -12.73,-86 -19.02,-128.8 -16.03,-107.5 -32.07,-214.8 -47.3,-322.1 -7.76,-56.4 -15.52,-112.8 -22.95,-169 l -0.34,-2 c -10.08,-74.7 -36.05,-119.7 -75.24,-151.9 -46.28,-38.4 -111.27,-58.9 -190.61,-90.5 -14.07,-5.4 -28.62,-11.4 -43.49,-17.7 -76.23,-32.5 -153.26,-63.3 -230.97,-91.9 -86.47,-32.2 -173.77,-62 -261.72,-89.7 h -0.17 c -17.35,-5.7 -34.72,-11.1 -52.06,-16.4 -35.39,-10.9 -70.78,-21.3 -106.32,-31.6 -212.12,-61 -427.23,-111 -644.32,-151.9 -103.65,-19.4 -207.64,-36.7 -311.97,-52.1 -66.46,-10.1 -132.92,-19.2 -199.72,-27.5 -87.98,-11.2 -176.08,-20.9 -264.37,-29.4 h -0.15 c -23.82,-2.5 -47.46,-4.8 -71.26,-6.9 -183.7,-16.8 -368.7,-29.8 -553.87,-37.1 -109.3,-4.2 -218.73,-6.7 -328.19,-6.7 -146.32,0 -292.46,4 -438.13,13 5.95,19.7 12.23,39.2 19.19,58.9 33.73,98 77.55,195.2 124.82,291.4 24.8,50.2 50.43,99.9 76.22,149.4 v 0.1 c 28.76,55.1 57.53,109.8 85.31,163.8 v 0.2 c 16.69,32.9 33.06,65.5 48.61,97.9 67.77,140.5 135.9,280.9 204.19,421.3 48.6,99.8 97.22,199.5 145.97,299.2 59.19,121.2 118.57,242.2 177.9,363.3 16.54,33.7 33.08,67.4 49.6,101 v 0.2 c 43.98,89.6 87.96,179 132.11,268.4 22.82,46.7 45.79,93.3 68.79,139.9 v 0.2 c 33.06,67.6 66.43,135.1 99.69,202.5 81.33,165 162.68,329.8 244.18,494.7 5.13,10.6 10.42,21.3 15.72,31.9 45.95,92.7 84.97,185.3 131.6,271.8 27.43,51.1 57.71,99.9 93.41,145.2 32.74,41.3 70.11,79.8 114.4,114.2 54.72,42.7 110.12,84.7 166.34,125.7 h 0.49 c 54.05,39.6 108.45,78.5 164,116 72.11,49 145.33,95.9 220.06,140.1 83.17,49.5 167.97,96 254.62,138.2 29.76,14.9 59.67,28.9 89.94,42.6 38.35,17.4 79.54,34.9 122.69,51.8 74.88,29.1 155.24,55.7 236.74,73 h 0.17 c 103.99,22.5 208.48,30.3 305.53,10.3 h 1.16 c 40.83,-8.3 80.18,-21.7 117.22,-40.8 h 0.17 c 48.6,-25.2 93.24,-60.2 132.58,-107.7 22.49,-26.9 42.33,-56.7 60.01,-88.4 l 0.35,-1 c 10.91,-19 20.81,-38.9 30.1,-59 40.65,-88.5 69.75,-185.2 96.87,-271.4 13.71,-43.3 26.28,-86.9 37.87,-131.1 27.94,-106.4 50.09,-214.9 66.78,-324.2 8.75,-55.7 15.86,-111.7 21.66,-168.1 9.75,-90.8 15.87,-181.9 19.01,-272.6 1.83,-49.5 2.65,-98.7 2.65,-147.8"
         style="fill:#e55353;fill-opacity:1;fill-rule:nonzero;stroke:none"
         id="path182" />
      <path
         d="m 2597.57,13154.7 c 0,0 -179.33,-433.7 -235.65,-397.9 -56.32,35.8 -337.96,394.3 -563.28,558.1 -225.29,163.9 -593.99,609.4 -593.99,609.4 0,0 -358.447,-220.2 -337.959,-261.1 20.497,-41 1395.359,-1808.3 1502.889,-1805.1 315.4,9.4 734.82,929.4 734.82,929.4 0,0 -81.7,283.7 -506.83,367.2"
         style="fill:#fac5b1;fill-opacity:1;fill-rule:nonzero;stroke:none"
         id="path184" />
      <path
         d="m 4102.91,17126.1 c 0,0 -244.9,-88.5 -334.94,-477.6 -90.05,-389.2 109.88,-1094.4 37.81,-1376.1 -72.05,-281.6 -478.14,-684.9 -507.84,-839.8 -29.68,-155 1186.47,382.7 1186.47,382.7 0,0 924.28,2076.7 -381.5,2310.8"
         style="fill:#d88a51;fill-opacity:1;fill-rule:nonzero;stroke:none"
         id="path186" />
      <path
         d="m 646.801,14383.7 c 0,0 -98.758,213.7 -133.867,262 -35.086,48.3 62.98,160.4 133.242,33.9 70.254,-126.5 113.371,-207.5 113.371,-207.5 l -112.746,-88.4"
         style="fill:#fac5b1;fill-opacity:1;fill-rule:nonzero;stroke:none"
         id="path188" />
      <path
         d="m 745.82,14182.9 -343.437,924.5 c -22.637,60.9 12.976,127.9 76.125,143.3 l 451.359,109.7 c 56.637,13.7 114.023,-19.7 130.033,-75.7 l 272.04,-952.8 c 17.24,-60.4 -20.21,-122.8 -81.65,-135.9 l -379.97,-81.5 c -52.715,-11.3 -105.746,17.8 -124.5,68.4"
         style="fill:#7d699b;fill-opacity:1;fill-rule:nonzero;stroke:none"
         id="path190" />
      <path
         d="m 619.473,14240.3 c 0,0 -41.856,79.5 85.218,221.3 168.805,188.3 407.329,407.7 466.369,401.4 84.94,-9.2 71.28,-76.6 -43.56,-176 -114.86,-99.5 -152.957,-131.8 -152.957,-131.8 0,0 250.147,133.5 321.577,126.6 71.42,-6.8 104.71,-77.4 66.92,-107 -37.77,-29.6 -135.48,-78.8 -135.48,-78.8 0,0 112.23,41.9 141.78,2.1 21.89,-29.4 45.49,-74.8 -50.99,-137.9 0,0 103.88,-49 18.45,-143.8 -85.42,-94.9 -94.55,-150.7 -75.52,-268.6 19.02,-117.9 -48.07,-308.1 -48.07,-308.1 l -369.573,75.9 c 0,0 -53.782,254.3 -101.828,324.6 -48.047,70.2 -122.336,200.1 -122.336,200.1"
         style="fill:#fac5b1;fill-opacity:1;fill-rule:nonzero;stroke:none"
         id="path192" />
      <path
         d="m 6360.17,13490.6 -221.55,-201.4 -227.34,-206.5 -180.03,-163.7 -118.9,139.2 -13.39,15.8 c 0,0 -48.61,-97.4 -113.57,-235.6 -23.31,-49.3 -48.61,-103.9 -74.39,-161.1 l -0.17,-0.1 c -22.83,-50.5 -46.15,-102.9 -68.8,-155.6 -97.85,-226.5 -185.66,-458.3 -183.67,-555.9 0.15,-8.9 0.98,-16.7 2.81,-23.1 10.1,-38.4 25.79,-93.3 43.82,-155.4 v -0.2 c 5.77,-20.3 11.9,-41.5 18.19,-63 6.94,-23.6 14.04,-47.8 21.32,-72.1 l 0.66,-2 c 2.49,-8.9 5.14,-18 7.78,-26.9 l 0.15,-0.3 0.34,-1.2 c 11.08,-37.7 22.15,-74.9 32.72,-110.3 27.62,-92.9 51.28,-171.6 61.17,-204.3 l 0.35,-1 c 2.98,-9.9 4.62,-15.4 4.62,-15.4 -165.33,-79.8 -387.88,-157.5 -624.45,-228.3 -77.38,-23.3 -156.41,-45.8 -235.27,-67.3 -71.75,-19.5 -143.5,-38.3 -214.11,-56.4 -114.25,-29.2 -225.51,-56 -328.84,-80 -72.58,-17 -141.37,-32.4 -204.34,-46.3 h -0.19 c -97.86,-21.6 -182.2,-39.5 -246.67,-52.7 -86.47,-17.9 -137.22,-27.6 -137.22,-27.6 0,0 77.21,497 118.22,841.3 4.47,36.9 8.42,72 11.73,104.5 11.42,107.5 16.69,187.2 10.91,210.3 -23.8,95.6 -69.93,617.9 -116.06,664 -16.36,16.5 -46.46,61.8 -78.37,113.4 -57.69,93.1 -121.36,206.7 -121.36,206.7 l -70.26,-108.5 -93.91,69 -154.57,113.4 -263.22,193.3 -64.82,47.6 c 0,0 27.46,58.2 72.58,149.3 39.36,79.7 92.09,184.5 151.94,297.9 80.36,152.4 173.28,320.2 263.06,462.9 60.83,96.7 120.02,181.9 172.92,242.9 12.91,14.9 25.48,28.4 37.55,40.2 250.96,245.7 972.96,496.6 972.96,496.6 0,0 78.88,-0.6 197.9,-3.6 94.09,-2.3 213.46,-6.3 338.77,-12.6 176.42,-8.9 365.22,-22.6 513.02,-43.5 184.21,-26.1 414.66,-277.4 605.63,-533 71.42,-95.7 137.4,-192.3 193.11,-277.6 107.12,-163.8 176.74,-287 176.74,-287 l 124.5,-228.8"
         style="fill:#e55353;fill-opacity:1;fill-rule:nonzero;stroke:none"
         id="path194" />
      <path
         d="m 5976.55,13535.9 c -93.62,0 -169.5,75.9 -169.5,169.5 v 0 c 0,93.7 75.88,169.6 169.5,169.6 93.63,0 169.53,-75.9 169.53,-169.6 v 0 c 0,-93.6 -75.9,-169.5 -169.53,-169.5"
         style="fill:#e96d6d;fill-opacity:1;fill-rule:nonzero;stroke:none"
         id="path196" />
      <path
         d="m 5972.8,13982.9 c -93.59,0 -169.48,75.9 -169.48,169.7 0,53.1 24.31,100.3 62.5,131.4 71.42,-95.7 137.4,-192.3 193.11,-277.6 -25.3,-14.9 -54.74,-23.5 -86.13,-23.5"
         style="fill:#e96d6d;fill-opacity:1;fill-rule:nonzero;stroke:none"
         id="path198" />
      <path
         d="m 5510.35,13769 c -93.64,0 -169.51,75.9 -169.51,169.5 v 0 c 0,93.7 75.87,169.6 169.51,169.6 93.62,0 169.51,-75.9 169.51,-169.6 v 0 c 0,-93.6 -75.89,-169.5 -169.51,-169.5"
         style="fill:#e96d6d;fill-opacity:1;fill-rule:nonzero;stroke:none"
         id="path200" />
      <path
         d="m 5510.35,14235.2 c -93.64,0 -169.51,75.9 -169.51,169.6 v 0 c 0,93.6 75.87,169.5 169.51,169.5 93.62,0 169.51,-75.9 169.51,-169.5 v 0 c 0,-93.7 -75.89,-169.6 -169.51,-169.6"
         style="fill:#e96d6d;fill-opacity:1;fill-rule:nonzero;stroke:none"
         id="path202" />
      <path
         d="m 5044.13,14002.1 c -93.61,0 -169.51,75.9 -169.51,169.6 0,93.6 75.9,169.5 169.51,169.5 93.63,0 169.52,-75.9 169.52,-169.5 0,-93.7 -75.89,-169.6 -169.52,-169.6"
         style="fill:#e96d6d;fill-opacity:1;fill-rule:nonzero;stroke:none"
         id="path204" />
      <path
         d="m 5044.13,14468.3 c -93.61,0 -169.51,76 -169.51,169.6 v 0 c 0,93.6 75.9,169.5 169.51,169.5 93.63,0 169.52,-75.9 169.52,-169.5 v 0 c 0,-93.6 -75.89,-169.6 -169.52,-169.6"
         style="fill:#e96d6d;fill-opacity:1;fill-rule:nonzero;stroke:none"
         id="path206" />
      <path
         d="m 5485.39,12838.4 c -81.84,12.2 -144.5,82.5 -144.5,167.8 v 0 c 0,93.6 75.71,169.4 169.46,169.4 52.08,0 98.7,-23.4 129.79,-60.5 v 0 c -6.93,-14.2 -16.37,-33.5 -27.79,-56.9 v 0 l -13.39,15.8 c 0,0 -48.61,-97.4 -113.57,-235.6 v 0"
         style="fill:#e96d6d;fill-opacity:1;fill-rule:nonzero;stroke:none"
         id="path208" />
      <path
         d="m 5510.35,13302.8 c -93.64,0 -169.51,75.9 -169.51,169.5 v 0 c 0,93.6 75.87,169.6 169.51,169.6 93.62,0 169.51,-76 169.51,-169.6 v 0 c 0,-93.6 -75.89,-169.5 -169.51,-169.5"
         style="fill:#e96d6d;fill-opacity:1;fill-rule:nonzero;stroke:none"
         id="path210" />
      <path
         d="m 5911.28,13082.7 c -61.34,25.5 -104.32,86 -104.32,156.6 0,93.6 75.9,169.5 169.62,169.5 76.22,0 140.69,-50.3 162.04,-119.6 l -227.34,-206.5"
         style="fill:#e96d6d;fill-opacity:1;fill-rule:nonzero;stroke:none"
         id="path212" />
      <path
         d="m 5044.13,13069.7 c -93.61,0 -169.51,75.9 -169.51,169.5 0,93.6 75.9,169.6 169.51,169.6 93.63,0 169.52,-76 169.52,-169.6 0,-93.6 -75.89,-169.5 -169.52,-169.5"
         style="fill:#e96d6d;fill-opacity:1;fill-rule:nonzero;stroke:none"
         id="path214" />
      <path
         d="m 5044.13,13535.9 c -93.61,0 -169.51,75.9 -169.51,169.5 v 0 c 0,93.7 75.9,169.6 169.51,169.6 93.63,0 169.52,-75.9 169.52,-169.6 v 0 c 0,-93.6 -75.89,-169.5 -169.52,-169.5"
         style="fill:#e96d6d;fill-opacity:1;fill-rule:nonzero;stroke:none"
         id="path216" />
      <path
         d="m 5342.03,12521.6 c -0.82,5.9 -1.14,12.1 -1.14,18.3 v 0 c 0,56.6 27.44,106.5 69.94,137.3 -22.83,-50.5 -46.15,-102.9 -68.8,-155.6 v 0"
         style="fill:#e96d6d;fill-opacity:1;fill-rule:nonzero;stroke:none"
         id="path218" />
      <path
         d="m 5044.13,12137.3 c -93.61,0 -169.51,75.9 -169.51,169.5 0,93.6 75.9,169.5 169.51,169.5 93.63,0 169.52,-75.9 169.52,-169.5 0,-93.6 -75.89,-169.5 -169.52,-169.5"
         style="fill:#e96d6d;fill-opacity:1;fill-rule:nonzero;stroke:none"
         id="path220" />
      <path
         d="m 5044.13,12603.5 c -93.61,0 -169.51,75.9 -169.51,169.5 v 0 c 0,93.6 75.9,169.5 169.51,169.5 93.63,0 169.52,-75.9 169.52,-169.5 v 0 c 0,-93.6 -75.89,-169.5 -169.52,-169.5"
         style="fill:#e96d6d;fill-opacity:1;fill-rule:nonzero;stroke:none"
         id="path222" />
      <path
         d="m 5474.64,10975.5 c -76.55,16.4 -133.75,84.4 -133.75,165.9 v 0 c 0,39.8 13.72,76.5 36.88,105.5 40.65,-88.5 69.75,-185.2 96.87,-271.4 v 0"
         style="fill:#e96d6d;fill-opacity:1;fill-rule:nonzero;stroke:none"
         id="path224" />
      <path
         d="m 5044.13,11204.9 c -93.61,0 -169.51,75.9 -169.51,169.5 0,93.6 75.9,169.5 169.51,169.5 93.63,0 169.52,-75.9 169.52,-169.5 0,-93.6 -75.89,-169.5 -169.52,-169.5"
         style="fill:#e96d6d;fill-opacity:1;fill-rule:nonzero;stroke:none"
         id="path226" />
      <path
         d="m 5044.12,11671.1 c -93.59,0 -169.46,75.9 -169.46,169.5 v 0 c 0,93.6 75.87,169.5 169.46,169.5 43.98,0 84.14,-16.9 114.24,-44.4 0.15,-8.9 0.98,-16.7 2.81,-23.1 10.1,-38.4 25.79,-93.3 43.82,-155.4 v -0.2 0 c -22.49,-67.3 -85.97,-115.9 -160.87,-115.9"
         style="fill:#e96d6d;fill-opacity:1;fill-rule:nonzero;stroke:none"
         id="path228" />
      <path
         d="m 5510.35,10039.3 c -93.75,0 -169.46,75.9 -169.46,169.4 v 0 c 0,93.8 75.71,169.7 169.46,169.7 33.4,0 64.49,-9.6 90.6,-26.3 9.75,-90.8 15.87,-181.9 19.01,-272.6 v 0 c -29.41,-25 -67.77,-40.2 -109.61,-40.2"
         style="fill:#e96d6d;fill-opacity:1;fill-rule:nonzero;stroke:none"
         id="path230" />
      <path
         d="m 5510.35,10505.5 c -93.75,0 -169.46,75.9 -169.46,169.7 v 0 c 0,93.5 75.71,169.4 169.46,169.4 l 2.16,-0.2 c 27.94,-106.4 50.09,-214.9 66.78,-324.2 v 0 c -20.99,-9.6 -44.3,-14.7 -68.94,-14.7"
         style="fill:#e96d6d;fill-opacity:1;fill-rule:nonzero;stroke:none"
         id="path232" />
      <path
         d="m 5044.13,10272.4 c -93.61,0 -169.51,75.9 -169.51,169.6 0,93.6 75.9,169.5 169.51,169.5 93.63,0 169.52,-75.9 169.52,-169.5 0,-93.7 -75.89,-169.6 -169.52,-169.6"
         style="fill:#e96d6d;fill-opacity:1;fill-rule:nonzero;stroke:none"
         id="path234" />
      <path
         d="m 5044.13,10738.6 c -93.61,0 -169.51,75.9 -169.51,169.6 v 0 c 0,93.6 75.9,169.5 169.51,169.5 93.63,0 169.52,-75.9 169.52,-169.5 v 0 c 0,-93.7 -75.89,-169.6 -169.52,-169.6"
         style="fill:#e96d6d;fill-opacity:1;fill-rule:nonzero;stroke:none"
         id="path236" />
      <path
         d="m 5510.35,9106.8 c -93.75,0 -169.46,75.9 -169.46,169.5 v 0 c 0,93.9 75.71,169.6 169.46,169.6 33.57,0 64.81,-9.8 91.11,-26.6 -8.27,-100.5 -18.7,-201 -30.59,-301.4 v 0 c -18.68,-7.1 -39.2,-11.1 -60.52,-11.1"
         style="fill:#e96d6d;fill-opacity:1;fill-rule:nonzero;stroke:none"
         id="path238" />
      <path
         d="m 5510.35,9573 c -93.75,0 -169.46,75.9 -169.46,169.5 v 0 c 0,93.7 75.71,169.6 169.46,169.6 43.16,0 82.5,-16 112.26,-42.5 -0.33,-86.8 -3.14,-173.7 -7.77,-260.5 v 0 c -28.76,-22.5 -64.98,-36.1 -104.49,-36.1"
         style="fill:#e96d6d;fill-opacity:1;fill-rule:nonzero;stroke:none"
         id="path240" />
      <path
         d="m 5044.13,9340 c -93.61,0 -169.51,75.9 -169.51,169.5 0,93.7 75.9,169.6 169.51,169.6 93.63,0 169.52,-75.9 169.52,-169.6 0,-93.6 -75.89,-169.5 -169.52,-169.5"
         style="fill:#e96d6d;fill-opacity:1;fill-rule:nonzero;stroke:none"
         id="path242" />
      <path
         d="m 5044.13,9806.2 c -93.61,0 -169.51,75.9 -169.51,169.5 v 0 c 0,93.7 75.9,169.6 169.51,169.6 93.63,0 169.52,-75.9 169.52,-169.6 v 0 c 0,-93.6 -75.89,-169.5 -169.52,-169.5"
         style="fill:#e96d6d;fill-opacity:1;fill-rule:nonzero;stroke:none"
         id="path244" />
      <path
         d="m 5439.74,8189.9 c -58.34,26.6 -98.85,85.5 -98.85,154.1 v 0 c 0,85.8 63.49,156.7 146.15,168 -16.03,-107.5 -32.07,-214.8 -47.3,-322.1 v 0"
         style="fill:#e96d6d;fill-opacity:1;fill-rule:nonzero;stroke:none"
         id="path246" />
      <path
         d="m 5506.06,8640.8 c -91.79,2.2 -165.17,77.3 -165.17,169.4 v 0 c 0,93.7 75.71,169.6 169.46,169.6 14.72,0 28.94,-1.8 42.49,-5.4 -14.54,-111.3 -30.43,-222.6 -46.78,-333.6 v 0"
         style="fill:#e96d6d;fill-opacity:1;fill-rule:nonzero;stroke:none"
         id="path248" />
      <path
         d="m 5044.13,8407.6 c -93.61,0 -169.51,75.9 -169.51,169.5 0,93.6 75.9,169.5 169.51,169.5 93.63,0 169.52,-75.9 169.52,-169.5 0,-93.6 -75.89,-169.5 -169.52,-169.5"
         style="fill:#e96d6d;fill-opacity:1;fill-rule:nonzero;stroke:none"
         id="path250" />
      <path
         d="m 5044.13,8873.8 c -93.61,0 -169.51,75.9 -169.51,169.5 v 0 c 0,93.6 75.9,169.5 169.51,169.5 93.63,0 169.52,-75.9 169.52,-169.5 v 0 c 0,-93.6 -75.89,-169.5 -169.52,-169.5"
         style="fill:#e96d6d;fill-opacity:1;fill-rule:nonzero;stroke:none"
         id="path252" />
      <path
         d="m 5341.21,7867 c -0.15,3.5 -0.32,7.1 -0.32,10.7 v 0 c 0,58.9 29.91,110.8 75.56,141.2 -10.08,-74.7 -36.05,-119.7 -75.24,-151.9 v 0"
         style="fill:#e96d6d;fill-opacity:1;fill-rule:nonzero;stroke:none"
         id="path254" />
      <path
         d="m 4876.14,7666.9 c 10.92,83.2 82.01,147.3 167.98,147.3 40.34,0 77.38,-14 106.48,-37.7 -14.07,-5.4 -28.62,-11.4 -43.49,-17.7 -76.23,-32.5 -153.26,-63.3 -230.97,-91.9"
         style="fill:#e96d6d;fill-opacity:1;fill-rule:nonzero;stroke:none"
         id="path256" />
      <path
         d="m 5044.13,7941.4 c -93.61,0 -169.51,75.9 -169.51,169.5 v 0 c 0,93.6 75.9,169.5 169.51,169.5 93.63,0 169.52,-75.9 169.52,-169.5 v 0 c 0,-93.6 -75.89,-169.5 -169.52,-169.5"
         style="fill:#e96d6d;fill-opacity:1;fill-rule:nonzero;stroke:none"
         id="path258" />
      <path
         d="m 4577.86,14701.5 c -93.56,0 -169.46,75.9 -169.46,169.6 v 0 2 c 94.09,-2.3 213.46,-6.3 338.77,-12.6 v 0 c -5.43,-88.7 -79.03,-159 -169.31,-159"
         style="fill:#e96d6d;fill-opacity:1;fill-rule:nonzero;stroke:none"
         id="path260" />
      <path
         d="m 4577.92,13769 c -93.62,0 -169.52,75.9 -169.52,169.5 v 0 c 0,93.7 75.9,169.6 169.52,169.6 93.63,0 169.52,-75.9 169.52,-169.6 v 0 c 0,-93.6 -75.89,-169.5 -169.52,-169.5"
         style="fill:#e96d6d;fill-opacity:1;fill-rule:nonzero;stroke:none"
         id="path262" />
      <path
         d="m 4577.92,14235.2 c -93.62,0 -169.52,75.9 -169.52,169.6 v 0 c 0,93.6 75.9,169.5 169.52,169.5 93.63,0 169.52,-75.9 169.52,-169.5 v 0 c 0,-93.7 -75.89,-169.6 -169.52,-169.6"
         style="fill:#e96d6d;fill-opacity:1;fill-rule:nonzero;stroke:none"
         id="path264" />
      <path
         d="m 4111.72,14002.1 c -93.63,0 -169.53,75.9 -169.53,169.6 0,93.6 75.9,169.5 169.53,169.5 93.62,0 169.5,-75.9 169.5,-169.5 0,-93.7 -75.88,-169.6 -169.5,-169.6"
         style="fill:#e96d6d;fill-opacity:1;fill-rule:nonzero;stroke:none"
         id="path266" />
      <path
         d="m 4111.72,14468.3 c -93.63,0 -169.53,76 -169.53,169.6 v 0 c 0,93.6 75.9,169.5 169.53,169.5 93.62,0 169.5,-75.9 169.5,-169.5 v 0 c 0,-93.6 -75.88,-169.6 -169.5,-169.6"
         style="fill:#e96d6d;fill-opacity:1;fill-rule:nonzero;stroke:none"
         id="path268" />
      <path
         d="m 4577.92,12836.6 c -93.62,0 -169.52,75.9 -169.52,169.5 v 0 c 0,93.7 75.9,169.5 169.52,169.5 93.63,0 169.52,-75.8 169.52,-169.5 v 0 c 0,-93.6 -75.89,-169.5 -169.52,-169.5"
         style="fill:#e96d6d;fill-opacity:1;fill-rule:nonzero;stroke:none"
         id="path270" />
      <path
         d="m 4577.92,13302.8 c -93.62,0 -169.52,75.9 -169.52,169.5 v 0 c 0,93.6 75.9,169.6 169.52,169.6 93.63,0 169.52,-76 169.52,-169.6 v 0 c 0,-93.6 -75.89,-169.5 -169.52,-169.5"
         style="fill:#e96d6d;fill-opacity:1;fill-rule:nonzero;stroke:none"
         id="path272" />
      <path
         d="m 4111.72,13069.7 c -93.63,0 -169.53,75.9 -169.53,169.5 0,93.6 75.9,169.6 169.53,169.6 93.62,0 169.5,-76 169.5,-169.6 0,-93.6 -75.88,-169.5 -169.5,-169.5"
         style="fill:#e96d6d;fill-opacity:1;fill-rule:nonzero;stroke:none"
         id="path274" />
      <path
         d="m 4111.72,13535.9 c -93.63,0 -169.53,75.9 -169.53,169.5 v 0 c 0,93.7 75.9,169.6 169.53,169.6 93.62,0 169.5,-75.9 169.5,-169.6 v 0 c 0,-93.6 -75.88,-169.5 -169.5,-169.5"
         style="fill:#e96d6d;fill-opacity:1;fill-rule:nonzero;stroke:none"
         id="path276" />
      <path
         d="m 4577.92,11904.2 c -93.62,0 -169.52,75.9 -169.52,169.5 v 0 c 0,93.6 75.9,169.5 169.52,169.5 93.63,0 169.52,-75.9 169.52,-169.5 v 0 c 0,-93.6 -75.89,-169.5 -169.52,-169.5"
         style="fill:#e96d6d;fill-opacity:1;fill-rule:nonzero;stroke:none"
         id="path278" />
      <path
         d="m 4577.92,12370.4 c -93.62,0 -169.52,75.9 -169.52,169.5 v 0 c 0,93.6 75.9,169.5 169.52,169.5 93.63,0 169.52,-75.9 169.52,-169.5 v 0 c 0,-93.6 -75.89,-169.5 -169.52,-169.5"
         style="fill:#e96d6d;fill-opacity:1;fill-rule:nonzero;stroke:none"
         id="path280" />
      <path
         d="m 4111.72,12137.3 c -93.63,0 -169.53,75.9 -169.53,169.5 0,93.6 75.9,169.5 169.53,169.5 93.62,0 169.5,-75.9 169.5,-169.5 0,-93.6 -75.88,-169.5 -169.5,-169.5"
         style="fill:#e96d6d;fill-opacity:1;fill-rule:nonzero;stroke:none"
         id="path282" />
      <path
         d="m 4111.72,12603.5 c -93.63,0 -169.53,75.9 -169.53,169.5 v 0 c 0,93.6 75.9,169.5 169.53,169.5 93.62,0 169.5,-75.9 169.5,-169.5 v 0 c 0,-93.6 -75.88,-169.5 -169.5,-169.5"
         style="fill:#e96d6d;fill-opacity:1;fill-rule:nonzero;stroke:none"
         id="path284" />
      <path
         d="m 4577.92,10971.8 c -31.18,0 -60.39,8.4 -85.49,23.1 0.05,0 0.09,0 0.14,0 78.86,21.5 157.89,44 235.27,67.3 0.02,0 0.05,0 0.08,0 -28.41,-53.8 -84.92,-90.4 -150,-90.4"
         style="fill:#e96d6d;fill-opacity:1;fill-rule:nonzero;stroke:none"
         id="path286" />
      <path
         d="m 4492.43,10994.9 c -50.26,29.4 -84.03,83.9 -84.03,146.4 v 0 c 0,93.6 75.9,169.5 169.52,169.5 93.63,0 169.52,-75.9 169.52,-169.5 v 0 c 0,-28.6 -7.06,-55.5 -19.52,-79.1 -0.03,0 -0.06,0 -0.08,0 -77.38,-23.3 -156.41,-45.8 -235.27,-67.3 -0.05,0 -0.09,0 -0.14,0"
         style="fill:#e96d6d;fill-opacity:1;fill-rule:nonzero;stroke:none"
         id="path288" />
      <path
         d="m 4577.92,11438 c -93.62,0 -169.52,75.9 -169.52,169.5 v 0 c 0,93.6 75.9,169.5 169.52,169.5 93.63,0 169.52,-75.9 169.52,-169.5 v 0 c 0,-93.6 -75.89,-169.5 -169.52,-169.5"
         style="fill:#e96d6d;fill-opacity:1;fill-rule:nonzero;stroke:none"
         id="path290" />
      <path
         d="m 4111.72,11204.9 c -93.63,0 -169.53,75.9 -169.53,169.5 0,93.6 75.9,169.5 169.53,169.5 93.62,0 169.5,-75.9 169.5,-169.5 0,-93.6 -75.88,-169.5 -169.5,-169.5"
         style="fill:#e96d6d;fill-opacity:1;fill-rule:nonzero;stroke:none"
         id="path292" />
      <path
         d="m 4111.72,11671.1 c -93.63,0 -169.53,75.9 -169.53,169.5 v 0 c 0,93.6 75.9,169.5 169.53,169.5 93.62,0 169.5,-75.9 169.5,-169.5 v 0 c 0,-93.6 -75.88,-169.5 -169.5,-169.5"
         style="fill:#e96d6d;fill-opacity:1;fill-rule:nonzero;stroke:none"
         id="path294" />
      <path
         d="m 4577.92,10039.3 c -93.62,0 -169.52,75.9 -169.52,169.6 v 0 c 0,93.6 75.9,169.5 169.52,169.5 93.63,0 169.52,-75.9 169.52,-169.5 v 0 c 0,-93.7 -75.89,-169.6 -169.52,-169.6"
         style="fill:#e96d6d;fill-opacity:1;fill-rule:nonzero;stroke:none"
         id="path296" />
      <path
         d="m 4577.92,10505.5 c -93.62,0 -169.52,75.9 -169.52,169.6 v 0 c 0,93.6 75.9,169.5 169.52,169.5 93.63,0 169.52,-75.9 169.52,-169.5 v 0 c 0,-93.7 -75.89,-169.6 -169.52,-169.6"
         style="fill:#e96d6d;fill-opacity:1;fill-rule:nonzero;stroke:none"
         id="path298" />
      <path
         d="m 4111.72,10272.4 c -93.63,0 -169.53,75.9 -169.53,169.6 0,93.6 75.9,169.5 169.53,169.5 93.62,0 169.5,-75.9 169.5,-169.5 0,-93.7 -75.88,-169.6 -169.5,-169.6"
         style="fill:#e96d6d;fill-opacity:1;fill-rule:nonzero;stroke:none"
         id="path300" />
      <path
         d="m 4111.72,10738.6 c -76.35,0 -140.9,50.5 -162.14,119.9 0.02,0 0.03,0 0.04,0 103.33,24 214.59,50.8 328.84,80 0.02,0 0.04,0 0.05,0 1.78,-9.8 2.71,-20 2.71,-30.3 v 0 c 0,-93.7 -75.88,-169.6 -169.5,-169.6"
         style="fill:#e96d6d;fill-opacity:1;fill-rule:nonzero;stroke:none"
         id="path302" />
      <path
         d="m 3949.58,10858.5 c -4.81,15.7 -7.39,32.4 -7.39,49.7 v 0 c 0,93.6 75.9,169.5 169.53,169.5 83.26,0 152.48,-60 166.79,-139.2 -0.01,0 -0.03,0 -0.05,0 -114.25,-29.2 -225.51,-56 -328.84,-80 -0.01,0 -0.02,0 -0.04,0"
         style="fill:#e96d6d;fill-opacity:1;fill-rule:nonzero;stroke:none"
         id="path304" />
      <path
         d="m 4577.92,9106.9 c -93.62,0 -169.52,75.9 -169.52,169.5 v 0 c 0,93.6 75.9,169.5 169.52,169.5 93.63,0 169.52,-75.9 169.52,-169.5 v 0 c 0,-93.6 -75.89,-169.5 -169.52,-169.5"
         style="fill:#e96d6d;fill-opacity:1;fill-rule:nonzero;stroke:none"
         id="path306" />
      <path
         d="m 4577.92,9573.1 c -93.62,0 -169.52,75.9 -169.52,169.5 v 0 c 0,93.7 75.9,169.6 169.52,169.6 93.63,0 169.52,-75.9 169.52,-169.6 v 0 c 0,-93.6 -75.89,-169.5 -169.52,-169.5"
         style="fill:#e96d6d;fill-opacity:1;fill-rule:nonzero;stroke:none"
         id="path308" />
      <path
         d="m 4111.72,9340 c -93.63,0 -169.53,75.9 -169.53,169.5 0,93.7 75.9,169.6 169.53,169.6 93.62,0 169.5,-75.9 169.5,-169.6 0,-93.6 -75.88,-169.5 -169.5,-169.5"
         style="fill:#e96d6d;fill-opacity:1;fill-rule:nonzero;stroke:none"
         id="path310" />
      <path
         d="m 4111.72,9806.2 c -93.63,0 -169.53,75.9 -169.53,169.5 v 0 c 0,93.7 75.9,169.6 169.53,169.6 93.62,0 169.5,-75.9 169.5,-169.6 v 0 c 0,-93.6 -75.88,-169.5 -169.5,-169.5"
         style="fill:#e96d6d;fill-opacity:1;fill-rule:nonzero;stroke:none"
         id="path312" />
      <path
         d="m 4577.92,8174.5 c -93.62,0 -169.52,75.9 -169.52,169.5 v 0 c 0,93.6 75.9,169.5 169.52,169.5 93.63,0 169.52,-75.9 169.52,-169.5 v 0 c 0,-93.6 -75.89,-169.5 -169.52,-169.5"
         style="fill:#e96d6d;fill-opacity:1;fill-rule:nonzero;stroke:none"
         id="path314" />
      <path
         d="m 4577.92,8640.7 c -93.62,0 -169.52,75.9 -169.52,169.5 v 0 c 0,93.6 75.9,169.5 169.52,169.5 93.63,0 169.52,-75.9 169.52,-169.5 v 0 c 0,-93.6 -75.89,-169.5 -169.52,-169.5"
         style="fill:#e96d6d;fill-opacity:1;fill-rule:nonzero;stroke:none"
         id="path316" />
      <path
         d="m 4111.72,8407.6 c -93.63,0 -169.53,75.9 -169.53,169.5 0,93.6 75.9,169.5 169.53,169.5 93.62,0 169.5,-75.9 169.5,-169.5 0,-93.6 -75.88,-169.5 -169.5,-169.5"
         style="fill:#e96d6d;fill-opacity:1;fill-rule:nonzero;stroke:none"
         id="path318" />
      <path
         d="m 4111.72,8873.8 c -93.63,0 -169.53,75.9 -169.53,169.5 v 0 c 0,93.6 75.9,169.5 169.53,169.5 93.62,0 169.5,-75.9 169.5,-169.5 v 0 c 0,-93.6 -75.88,-169.5 -169.5,-169.5"
         style="fill:#e96d6d;fill-opacity:1;fill-rule:nonzero;stroke:none"
         id="path320" />
      <path
         d="m 4455.87,7529.2 c 30.74,32.1 74.06,51.9 121.99,51.9 12.58,0 24.82,-1.3 36.39,-3.9 -17.35,-5.7 -34.72,-11.1 -52.06,-16.4 -35.39,-10.9 -70.78,-21.3 -106.32,-31.6"
         style="fill:#e96d6d;fill-opacity:1;fill-rule:nonzero;stroke:none"
         id="path322" />
      <path
         d="m 4577.92,7708.2 c -93.62,0 -169.52,76 -169.52,169.6 v 0 c 0,93.6 75.9,169.5 169.52,169.5 93.63,0 169.52,-75.9 169.52,-169.5 v 0 c 0,-93.6 -75.89,-169.6 -169.52,-169.6"
         style="fill:#e96d6d;fill-opacity:1;fill-rule:nonzero;stroke:none"
         id="path324" />
      <path
         d="m 4111.72,7475.2 c -93.63,0 -169.53,75.9 -169.53,169.5 0,93.6 75.9,169.5 169.53,169.5 93.62,0 169.5,-75.9 169.5,-169.5 0,-93.6 -75.88,-169.5 -169.5,-169.5"
         style="fill:#e96d6d;fill-opacity:1;fill-rule:nonzero;stroke:none"
         id="path326" />
      <path
         d="m 4111.72,7941.4 c -93.63,0 -169.53,75.9 -169.53,169.5 v 0 c 0,93.6 75.9,169.5 169.53,169.5 93.62,0 169.5,-75.9 169.5,-169.5 v 0 c 0,-93.6 -75.88,-169.5 -169.5,-169.5"
         style="fill:#e96d6d;fill-opacity:1;fill-rule:nonzero;stroke:none"
         id="path328" />
      <path
         d="m 3645.5,13769 c -93.61,0 -169.52,75.9 -169.52,169.5 v 0 c 0,93.7 75.91,169.6 169.52,169.6 93.63,0 169.52,-75.9 169.52,-169.6 v 0 c 0,-93.6 -75.89,-169.5 -169.52,-169.5"
         style="fill:#e96d6d;fill-opacity:1;fill-rule:nonzero;stroke:none"
         id="path330" />
      <path
         d="m 3645.5,14235.2 c -93.61,0 -169.52,75.9 -169.52,169.6 v 0 c 0,93.6 75.91,169.5 169.52,169.5 93.63,0 169.52,-75.9 169.52,-169.5 v 0 c 0,-93.7 -75.89,-169.6 -169.52,-169.6"
         style="fill:#e96d6d;fill-opacity:1;fill-rule:nonzero;stroke:none"
         id="path332" />
      <path
         d="m 3179.32,14002.1 c -66.94,0 -124.65,38.7 -152.25,94.9 60.83,96.7 120.02,181.9 172.92,242.9 83.83,-10.1 148.82,-81.5 148.82,-168.3 0,-93.6 -75.9,-169.5 -169.49,-169.5"
         style="fill:#e96d6d;fill-opacity:1;fill-rule:nonzero;stroke:none"
         id="path334" />
      <path
         d="m 3645.5,12836.6 c -93.61,0 -169.52,75.9 -169.52,169.5 v 0 c 0,93.7 75.91,169.5 169.52,169.5 93.63,0 169.52,-75.8 169.52,-169.5 v 0 c 0,-93.6 -75.89,-169.5 -169.52,-169.5"
         style="fill:#e96d6d;fill-opacity:1;fill-rule:nonzero;stroke:none"
         id="path336" />
      <path
         d="m 3307.63,12665.4 v 0 c -57.69,93.1 -121.36,206.7 -121.36,206.7 l -70.26,-108.5 -16.92,12.5 -76.99,56.5 c 21.82,68.4 85.98,117.8 161.52,117.8 93.61,0 169.48,-75.8 169.48,-169.6 0,-44.6 -17.2,-85.1 -45.47,-115.4"
         style="fill:#e96d6d;fill-opacity:1;fill-rule:nonzero;stroke:none"
         id="path338" />
      <path
         d="m 3645.5,13302.8 c -93.61,0 -169.52,75.9 -169.52,169.5 v 0 c 0,93.6 75.91,169.6 169.52,169.6 93.63,0 169.52,-76 169.52,-169.6 v 0 c 0,-93.6 -75.89,-169.5 -169.52,-169.5"
         style="fill:#e96d6d;fill-opacity:1;fill-rule:nonzero;stroke:none"
         id="path340" />
      <path
         d="m 3179.29,13069.7 c -93.63,0 -169.53,75.9 -169.53,169.5 0,93.6 75.9,169.6 169.53,169.6 93.62,0 169.52,-76 169.52,-169.6 0,-93.6 -75.9,-169.5 -169.52,-169.5"
         style="fill:#e96d6d;fill-opacity:1;fill-rule:nonzero;stroke:none"
         id="path342" />
      <path
         d="m 2867.53,12946 v 0 l -263.22,193.3 c 28.77,22.8 65.14,36.3 104.64,36.3 93.75,0 169.65,-75.8 169.65,-169.4 0,-21.2 -3.98,-41.5 -11.07,-60.2"
         style="fill:#e96d6d;fill-opacity:1;fill-rule:nonzero;stroke:none"
         id="path344" />
      <path
         d="m 3179.29,13535.9 c -93.63,0 -169.53,75.9 -169.53,169.5 v 0 c 0,93.7 75.9,169.6 169.53,169.6 93.62,0 169.52,-75.9 169.52,-169.6 v 0 c 0,-93.6 -75.9,-169.5 -169.52,-169.5"
         style="fill:#e96d6d;fill-opacity:1;fill-rule:nonzero;stroke:none"
         id="path346" />
      <path
         d="m 3645.5,11904.2 c -93.61,0 -169.52,75.9 -169.52,169.5 v 0 c 0,93.6 75.91,169.5 169.52,169.5 93.63,0 169.52,-75.9 169.52,-169.5 v 0 c 0,-93.6 -75.89,-169.5 -169.52,-169.5"
         style="fill:#e96d6d;fill-opacity:1;fill-rule:nonzero;stroke:none"
         id="path348" />
      <path
         d="m 3645.5,12370.4 c -93.61,0 -169.52,75.9 -169.52,169.5 v 0 c 0,93.6 75.91,169.5 169.52,169.5 93.63,0 169.52,-75.9 169.52,-169.5 v 0 c 0,-93.6 -75.89,-169.5 -169.52,-169.5"
         style="fill:#e96d6d;fill-opacity:1;fill-rule:nonzero;stroke:none"
         id="path350" />
      <path
         d="m 3645.5,10971.8 c -93.61,0 -169.52,75.8 -169.52,169.5 v 0 c 0,93.6 75.91,169.5 169.52,169.5 93.63,0 169.52,-75.9 169.52,-169.5 v 0 c 0,-93.7 -75.89,-169.5 -169.52,-169.5"
         style="fill:#e96d6d;fill-opacity:1;fill-rule:nonzero;stroke:none"
         id="path352" />
      <path
         d="m 3645.56,11438 c -82.01,0 -150.44,58 -166.14,135.2 v 0 c 4.47,36.9 8.42,72 11.73,104.5 26.79,58.7 85.79,99.4 154.41,99.4 93.58,0 169.48,-76.1 169.48,-169.7 v 0 c 0,-93.5 -75.9,-169.4 -169.48,-169.4"
         style="fill:#e96d6d;fill-opacity:1;fill-rule:nonzero;stroke:none"
         id="path354" />
      <path
         d="m 3645.5,10039.3 c -93.61,0 -169.52,75.9 -169.52,169.6 v 0 c 0,93.6 75.91,169.5 169.52,169.5 93.63,0 169.52,-75.9 169.52,-169.5 v 0 c 0,-93.7 -75.89,-169.6 -169.52,-169.6"
         style="fill:#e96d6d;fill-opacity:1;fill-rule:nonzero;stroke:none"
         id="path356" />
      <path
         d="m 3645.5,10505.5 c -93.61,0 -169.52,75.9 -169.52,169.6 v 0 c 0,30.7 8.18,59.5 22.48,84.4 64.47,13.2 148.8,31.1 246.63,52.7 h 0.09 c 42.33,-30.8 69.84,-80.8 69.84,-137.1 v 0 c 0,-93.7 -75.89,-169.6 -169.52,-169.6"
         style="fill:#e96d6d;fill-opacity:1;fill-rule:nonzero;stroke:none"
         id="path358" />
      <path
         d="m 3498.46,10759.5 c 29.27,50.8 84.16,85.1 147.04,85.1 37.26,0 71.7,-12 99.68,-32.4 h -0.09 c -97.83,-21.6 -182.16,-39.5 -246.63,-52.7"
         style="fill:#e96d6d;fill-opacity:1;fill-rule:nonzero;stroke:none"
         id="path360" />
      <path
         d="m 3179.16,10272.4 c -20.66,0 -40.49,3.6 -58.69,10.6 5.13,10.6 10.42,21.3 15.72,31.9 45.95,92.7 84.97,185.3 131.6,271.8 48.61,-29.8 81.02,-83.3 81.02,-144.7 0,-93.7 -75.9,-169.6 -169.65,-169.6"
         style="fill:#e96d6d;fill-opacity:1;fill-rule:nonzero;stroke:none"
         id="path362" />
      <path
         d="m 3645.5,9106.9 c -93.61,0 -169.52,75.9 -169.52,169.5 v 0 c 0,93.6 75.91,169.5 169.52,169.5 93.63,0 169.52,-75.9 169.52,-169.5 v 0 c 0,-93.6 -75.89,-169.5 -169.52,-169.5"
         style="fill:#e96d6d;fill-opacity:1;fill-rule:nonzero;stroke:none"
         id="path364" />
      <path
         d="m 3645.5,9573.1 c -93.61,0 -169.52,75.9 -169.52,169.5 v 0 c 0,93.7 75.91,169.6 169.52,169.6 93.63,0 169.52,-75.9 169.52,-169.6 v 0 c 0,-93.6 -75.89,-169.5 -169.52,-169.5"
         style="fill:#e96d6d;fill-opacity:1;fill-rule:nonzero;stroke:none"
         id="path366" />
      <path
         d="m 3179.29,9340 c -93.63,0 -169.53,75.9 -169.53,169.5 0,93.7 75.9,169.6 169.53,169.6 93.62,0 169.52,-75.9 169.52,-169.6 0,-93.6 -75.9,-169.5 -169.52,-169.5"
         style="fill:#e96d6d;fill-opacity:1;fill-rule:nonzero;stroke:none"
         id="path368" />
      <path
         d="m 3179.29,9806.2 c -93.63,0 -169.53,75.9 -169.53,169.5 v 0 c 0,93.7 75.9,169.6 169.53,169.6 93.62,0 169.52,-75.9 169.52,-169.6 v 0 c 0,-93.6 -75.9,-169.5 -169.52,-169.5"
         style="fill:#e96d6d;fill-opacity:1;fill-rule:nonzero;stroke:none"
         id="path370" />
      <path
         d="m 3645.5,8174.5 c -93.61,0 -169.52,75.9 -169.52,169.5 v 0 c 0,93.6 75.91,169.5 169.52,169.5 93.63,0 169.52,-75.9 169.52,-169.5 v 0 c 0,-93.6 -75.89,-169.5 -169.52,-169.5"
         style="fill:#e96d6d;fill-opacity:1;fill-rule:nonzero;stroke:none"
         id="path372" />
      <path
         d="m 3645.5,8640.7 c -93.61,0 -169.52,75.9 -169.52,169.5 v 0 c 0,93.6 75.91,169.5 169.52,169.5 93.63,0 169.52,-75.9 169.52,-169.5 v 0 c 0,-93.6 -75.89,-169.5 -169.52,-169.5"
         style="fill:#e96d6d;fill-opacity:1;fill-rule:nonzero;stroke:none"
         id="path374" />
      <path
         d="m 3179.29,8407.6 c -93.63,0 -169.53,75.9 -169.53,169.5 0,93.6 75.9,169.5 169.53,169.5 93.62,0 169.52,-75.9 169.52,-169.5 0,-93.6 -75.9,-169.5 -169.52,-169.5"
         style="fill:#e96d6d;fill-opacity:1;fill-rule:nonzero;stroke:none"
         id="path376" />
      <path
         d="m 3179.29,8873.8 c -93.63,0 -169.53,75.9 -169.53,169.5 v 0 c 0,93.6 75.9,169.5 169.53,169.5 93.62,0 169.52,-75.9 169.52,-169.5 v 0 c 0,-93.6 -75.9,-169.5 -169.52,-169.5"
         style="fill:#e96d6d;fill-opacity:1;fill-rule:nonzero;stroke:none"
         id="path378" />
      <path
         d="m 3499.58,7325.2 c -15.06,25.3 -23.64,54.7 -23.64,86.3 v 0 c 0,93.7 75.88,169.6 169.62,169.6 93.58,0 169.48,-75.9 169.48,-169.6 v 0 c 0,-11.8 -1.16,-23.2 -3.49,-34.2 v 0 c -103.65,-19.4 -207.64,-36.7 -311.97,-52.1 v 0"
         style="fill:#e96d6d;fill-opacity:1;fill-rule:nonzero;stroke:none"
         id="path380" />
      <path
         d="m 3645.5,7708.2 c -93.61,0 -169.52,76 -169.52,169.6 v 0 c 0,93.6 75.91,169.5 169.52,169.5 93.63,0 169.52,-75.9 169.52,-169.5 v 0 c 0,-93.6 -75.89,-169.6 -169.52,-169.6"
         style="fill:#e96d6d;fill-opacity:1;fill-rule:nonzero;stroke:none"
         id="path382" />
      <path
         d="m 3179.29,7475.2 c -93.63,0 -169.53,75.9 -169.53,169.5 0,93.6 75.9,169.5 169.53,169.5 93.62,0 169.52,-75.9 169.52,-169.5 0,-93.6 -75.9,-169.5 -169.52,-169.5"
         style="fill:#e96d6d;fill-opacity:1;fill-rule:nonzero;stroke:none"
         id="path384" />
      <path
         d="m 3179.29,7941.4 c -93.63,0 -169.53,75.9 -169.53,169.5 v 0 c 0,93.6 75.9,169.5 169.53,169.5 93.62,0 169.52,-75.9 169.52,-169.5 v 0 c 0,-93.6 -75.9,-169.5 -169.52,-169.5"
         style="fill:#e96d6d;fill-opacity:1;fill-rule:nonzero;stroke:none"
         id="path386" />
      <path
         d="m 3035.49,7268.3 c 29.93,48 83.18,79.7 143.67,79.7 47.13,0 89.96,-19.2 120.7,-50.3 -79.06,-10 -158.23,-18.9 -237.53,-26.8 -8.95,-0.9 -17.89,-1.7 -26.84,-2.6"
         style="fill:#e96d6d;fill-opacity:1;fill-rule:nonzero;stroke:none"
         id="path388" />
      <path
         d="m 2712.93,13302.8 c -37.7,0 -72.73,12.4 -100.86,33.4 v 0 c 39.36,79.7 92.09,184.5 151.94,297.9 68.94,-21.7 118.56,-86 118.56,-161.7 v 0 c 0,-93.7 -75.73,-169.6 -169.64,-169.6"
         style="fill:#e96d6d;fill-opacity:1;fill-rule:nonzero;stroke:none"
         id="path390" />
      <path
         d="m 2712.93,9106.8 c -56.37,0 -106.47,27.8 -137.23,70.3 v 0 0.2 c 43.98,89.6 87.96,179 132.11,268.4 1.64,0.2 3.47,0.2 5.12,0.2 93.91,0 169.64,-75.7 169.64,-169.6 v 0 c 0,-93.6 -75.73,-169.5 -169.64,-169.5"
         style="fill:#e96d6d;fill-opacity:1;fill-rule:nonzero;stroke:none"
         id="path392" />
      <path
         d="m 2776.6,9585.8 v 0 c 33.06,67.6 66.43,135.1 99.69,202.5 4.12,-14.6 6.28,-29.8 6.28,-45.8 v 0 c 0,-71.1 -43.82,-131.9 -105.97,-156.7"
         style="fill:#e96d6d;fill-opacity:1;fill-rule:nonzero;stroke:none"
         id="path394" />
      <path
         d="m 2713.08,8174.5 c -93.64,0 -169.54,75.9 -169.54,169.5 v 0 c 0,93.6 75.9,169.5 169.54,169.5 93.61,0 169.52,-75.9 169.52,-169.5 v 0 c 0,-93.6 -75.91,-169.5 -169.52,-169.5"
         style="fill:#e96d6d;fill-opacity:1;fill-rule:nonzero;stroke:none"
         id="path396" />
      <path
         d="m 2713.08,8640.7 c -93.64,0 -169.54,75.9 -169.54,169.5 v 0 c 0,93.6 75.9,169.5 169.54,169.5 93.61,0 169.52,-75.9 169.52,-169.5 v 0 c 0,-93.6 -75.91,-169.5 -169.52,-169.5"
         style="fill:#e96d6d;fill-opacity:1;fill-rule:nonzero;stroke:none"
         id="path398" />
      <path
         d="m 2246.86,8407.6 c -15.38,0 -30.42,2 -44.63,6 48.6,99.8 97.22,199.5 145.97,299.2 41.5,-30.9 68.3,-80.2 68.3,-135.7 0,-93.6 -75.89,-169.5 -169.64,-169.5"
         style="fill:#e96d6d;fill-opacity:1;fill-rule:nonzero;stroke:none"
         id="path400" />
      <path
         d="m 2713.08,7242 c -93.64,0 -169.54,75.9 -169.54,169.6 v 0 c 0,93.6 75.9,169.5 169.54,169.5 93.61,0 169.52,-75.9 169.52,-169.5 v 0 c 0,-93.7 -75.91,-169.6 -169.52,-169.6"
         style="fill:#e96d6d;fill-opacity:1;fill-rule:nonzero;stroke:none"
         id="path402" />
      <path
         d="m 2713.08,7708.2 c -93.64,0 -169.54,76 -169.54,169.6 v 0 c 0,93.6 75.9,169.5 169.54,169.5 93.61,0 169.52,-75.9 169.52,-169.5 v 0 c 0,-93.6 -75.91,-169.6 -169.52,-169.6"
         style="fill:#e96d6d;fill-opacity:1;fill-rule:nonzero;stroke:none"
         id="path404" />
      <path
         d="m 2246.86,7475.2 c -93.61,0 -169.53,75.9 -169.53,169.5 0,93.6 75.92,169.5 169.53,169.5 93.62,0 169.52,-75.9 169.52,-169.5 0,-93.6 -75.9,-169.5 -169.52,-169.5"
         style="fill:#e96d6d;fill-opacity:1;fill-rule:nonzero;stroke:none"
         id="path406" />
      <path
         d="m 2246.86,7941.4 c -93.61,0 -169.53,75.9 -169.53,169.5 v 0 c 0,93.6 75.92,169.5 169.53,169.5 93.62,0 169.52,-75.9 169.52,-169.5 v 0 c 0,-93.6 -75.9,-169.5 -169.52,-169.5"
         style="fill:#e96d6d;fill-opacity:1;fill-rule:nonzero;stroke:none"
         id="path408" />
      <path
         d="m 2082.02,7217.6 c 17.53,74.7 84.65,130.4 164.84,130.4 77.87,0 143.35,-52.3 163.35,-123.7 -109.3,-4.2 -218.73,-6.7 -328.19,-6.7"
         style="fill:#e96d6d;fill-opacity:1;fill-rule:nonzero;stroke:none"
         id="path410" />
      <path
         d="m 1780.63,7242 c -45.63,0 -87.14,18.2 -117.55,47.5 v 0 c 33.73,98 77.55,195.2 124.82,291.4 90.26,-3.7 162.35,-78.2 162.35,-169.4 v 0 c 0,-93.6 -75.87,-169.5 -169.62,-169.5"
         style="fill:#e96d6d;fill-opacity:1;fill-rule:nonzero;stroke:none"
         id="path412" />
      <path
         d="m 1864.12,7730.4 v 0 c 28.76,55.1 57.53,109.8 85.31,163.8 0.51,-5.4 0.82,-10.9 0.82,-16.5 v 0 c 0,-63.2 -34.71,-118.4 -86.13,-147.3"
         style="fill:#e96d6d;fill-opacity:1;fill-rule:nonzero;stroke:none"
         id="path414" />
      <path
         d="m 5764.5,12949.2 c 0,0 578.14,-730.1 515.69,-827.4 -62.45,-97.2 -597.55,-742.4 -597.55,-742.4 l 219.53,-208.3 c 0,0 960.75,740.8 986.37,899.5 25.6,158.8 -574.16,1378.4 -574.16,1378.4 l -549.88,-499.8"
         style="fill:#fac5b1;fill-opacity:1;fill-rule:nonzero;stroke:none"
         id="path416" />
      <path
         d="m 4905.73,15875.1 c -129.19,-358.6 -14.49,-1022.9 -14.49,-1022.9 40.67,-500.7 -583.51,-1194.2 -911.21,-927.9 -327.7,266.3 194.59,839.8 260.77,952.4 28.12,48 32.35,117.7 27.87,182 -6.02,87.1 -27.87,164.3 -27.87,164.3 0,0 113.82,144.9 248.3,305.5 220.68,263.6 496.88,569.4 416.63,346.6"
         style="fill:#fac5b1;fill-opacity:1;fill-rule:nonzero;stroke:none"
         id="path418" />
      <path
         d="m 828.09,13783.4 c 0,0 17.687,-115.5 60.14,-152.4 42.461,-37 54.258,64.3 54.258,64.3 l -114.398,88.1"
         style="fill:#fac5b1;fill-opacity:1;fill-rule:nonzero;stroke:none"
         id="path420" />
      <path
         d="m 5695.17,11394.5 c 0,0 -126.47,-77.9 -206.39,-50.4 -62.71,21.5 -94.18,137.8 -183.76,160.7 -89.57,23 -289.41,195.3 -385.88,197.6 -96.48,2.3 -330.78,-80.4 -328.47,-117.2 2.29,-36.7 222.8,2.3 261.86,6.9 39.04,4.6 156.18,-71.2 149.3,-96.4 -6.9,-25.3 -199.84,29.8 -243.48,0 -43.64,-29.9 -222.81,-193 -220.51,-225.1 2.29,-32.2 45.93,-62.1 68.9,-48.3 0,0 -68.9,-59.7 -2.3,-75.8 66.63,-16.1 91.89,73.5 204.43,103.4 112.56,29.9 202.13,13.8 202.13,-4.6 0,-18.4 -117.14,-6.9 -158.47,-32.2 -41.35,-25.2 -126.34,-78.1 -119.44,-128.6 6.88,-50.5 89.57,13.8 142.39,29.9 52.85,16 153.06,6.8 240.77,-34.5 87.71,-41.3 333.47,-206.7 494.26,-98.8 160.8,108 291.66,190 291.66,190 l -207,223.4"
         style="fill:#fac5b1;fill-opacity:1;fill-rule:nonzero;stroke:none"
         id="path422" />
      <path
         d="m 5876.7,11032.1 c -37.66,0 -74.49,51.7 -85.27,68.1 l 33.25,21.8 c 18.88,-28.8 44.37,-51.6 52.08,-50.1 0,0 3.19,1.9 6.55,12.1 2.83,8.5 5.19,46.8 -83.61,178.7 -49.49,73.5 -104.01,131.1 -104.53,131.8 l 27.79,33.6 c 0.55,-0.7 59.25,-68.2 109.73,-143.2 95.53,-141.9 96.17,-189.8 88.35,-213.4 -9.68,-29.3 -26.64,-37.4 -39.13,-39 -1.74,-0.2 -3.46,-0.4 -5.21,-0.4"
         style="fill:#d88a51;fill-opacity:1;fill-rule:nonzero;stroke:none"
         id="path424" />
      <path
         d="m 4771.23,15556.3 c 0,0 -114.04,-408.3 -502.56,-497.6 -6.02,87.1 -27.87,164.3 -27.87,164.3 0,0 113.82,144.9 248.3,305.5 l 282.13,27.8"
         style="fill:#ac887b;fill-opacity:1;fill-rule:nonzero;stroke:none"
         id="path426" />
      <path
         d="m 4164.38,17058.1 c 0,0 -430.13,-158.7 -348.21,-993.4 81.93,-834.6 296.99,-855.1 522.3,-839.8 225.31,15.4 455.73,271.4 558.15,619.7 102.41,348.1 527.43,1582.2 -732.24,1213.5"
         style="fill:#fac5b1;fill-opacity:1;fill-rule:nonzero;stroke:none"
         id="path428" />
      <path
         d="m 4271.9,16709.9 c 0,0 583.76,-532.5 686.18,-947.3 0,0 322.57,1126.5 35.84,1305.8 -286.77,179.2 -829.54,-10.3 -829.54,-10.3 0,0 -409.84,9.9 -373.98,-1003.9 0,0 194.74,512.4 481.5,655.7"
         style="fill:#d88a51;fill-opacity:1;fill-rule:nonzero;stroke:none"
         id="path430" />
      <path
         d="m 4102.91,17126.1 c 0,0 358.46,213.6 619.6,136.8 261.16,-76.8 645.22,-266.2 634.96,-701.5 -10.24,-435.2 286.76,-696.4 194.59,-1177.7 -92.17,-481.4 168.97,-563.3 230.43,-752.8 61.45,-189.4 -68.23,-209 -205.55,-40 -137.33,169 -403.8,201.1 -480.61,-94.5 -76.82,-295.6 -303.25,-879.3 -656,-858.8 -352.78,20.4 -250.37,527.4 128.57,752.7 378.94,225.3 174.09,1256.5 342.8,1504.7 151.08,222.2 -237.44,948.1 -484.71,1014.6 -247.25,66.6 -324.08,216.5 -324.08,216.5"
         style="fill:#d88a51;fill-opacity:1;fill-rule:nonzero;stroke:none"
         id="path432" />
      <path
         d="m 1569.8,15470.7 c 0,-76.9 -62.34,-139.3 -139.25,-139.3 -76.93,0 -139.29,62.4 -139.29,139.3 0,76.9 62.36,139.3 139.29,139.3 76.91,0 139.25,-62.4 139.25,-139.3"
         style="fill:#b6d1ed;fill-opacity:1;fill-rule:nonzero;stroke:none"
         id="path434" />
      <path
         d="m 1036.39,16140.8 c 0,-146.6 -118.824,-265.4 -265.406,-265.4 -146.582,0 -265.398,118.8 -265.398,265.4 0,146.5 118.816,265.4 265.398,265.4 146.582,0 265.406,-118.9 265.406,-265.4"
         style="fill:#ebb4d2;fill-opacity:1;fill-rule:nonzero;stroke:none"
         id="path436" />
      <path
         d="m 1572.44,16251.1 c 0,-60.9 -49.41,-110.3 -110.36,-110.3 -60.97,0 -110.37,49.4 -110.37,110.3 0,61 49.4,110.4 110.37,110.4 60.95,0 110.36,-49.4 110.36,-110.4"
         style="fill:#ffe3b2;fill-opacity:1;fill-rule:nonzero;stroke:none"
         id="path438" />
      <path
         d="m 7820.6,10857.6 110.82,-220.7 219.38,309 -42.46,159.5 -287.74,-247.8"
         style="fill:#eea886;fill-opacity:1;fill-rule:nonzero;stroke:none"
         id="path440" />
      <path
         d="m 9620.52,3491.7 c 0,0 105.61,-27.9 218.8,-212.3 53.75,-87.5 253.88,-110.4 289.98,-419.8 28.3,-242.6 -459.56,-176.4 -639.92,-167.5 -180.35,9 -193.94,139.4 -269.91,277.5 -75.9,138.2 -131.06,136.7 -145.21,248 -14.31,111.5 36.63,290.3 36.63,290.3 l 509.63,-16.2"
         style="fill:#163342;fill-opacity:1;fill-rule:nonzero;stroke:none"
         id="path442" />
      <path
         d="m 9636.24,3633.4 -15.72,-141.7 c 0,0 -241.53,-69.6 -509.63,16.2 l 1.64,157.9 523.71,-32.4"
         style="fill:#eea886;fill-opacity:1;fill-rule:nonzero;stroke:none"
         id="path444" />
      <path
         d="m 7941.81,3491.7 c 0,0 -88.2,-37.1 -201.43,-221.4 -53.75,-87.6 -271.28,-101.3 -307.42,-410.7 -28.33,-242.6 459.56,-176.4 639.92,-167.5 180.34,9 194,139.4 269.92,277.5 75.94,138.2 131.03,136.7 145.27,248 14.22,111.5 -47.1,289.9 -47.1,289.9 l -499.16,-15.8"
         style="fill:#163342;fill-opacity:1;fill-rule:nonzero;stroke:none"
         id="path446" />
      <path
         d="m 7926.03,3633.4 15.78,-141.7 c 0,0 230.99,-70 499.16,15.8 l 8.74,158.3 -523.68,-32.4"
         style="fill:#eea886;fill-opacity:1;fill-rule:nonzero;stroke:none"
         id="path448" />
      <path
         d="m 10655.4,6762.3 c 0,-300.9 -953.14,-3134.3 -953.14,-3134.3 -32.03,-100.3 -544.54,-63.9 -651.36,-13.8 -106.76,50.1 707.58,2977.6 687.9,3281 -19.75,303.4 -588.98,2424.4 -682.63,2414.4 -93.6,-10.1 -217.77,-2191 -356.98,-2871 -48.44,-236.8 -208.87,-2828 -208.87,-2828 -234.96,-130.4 -610.5,-38.6 -610.5,-38.6 0,0 -231.64,2945.8 -199.59,3026 32.06,80.3 -17.64,590.3 -7.06,1342.4 7.88,561.2 126,1877.8 238.22,2677.1 44.19,122.5 74.15,412.3 101.42,501.8 542.04,234.6 1749.54,111.7 2323.19,5.5 7.5,-58.7 47.6,-379.5 48.6,-390.2 6.9,-58.9 130.2,-1050.9 121.4,-1134.1 -10.7,-100.3 149.4,-2537.3 149.4,-2838.2"
         style="fill:#5b83c2;fill-opacity:1;fill-rule:nonzero;stroke:none"
         id="path450" />
      <path
         d="m 9756.84,15189.9 c 0,0 141.41,-7.6 325.36,-74.7 335.9,-122.3 832.8,-332.5 938,-535.1 155.6,-299.8 707.7,-1472.8 672.2,-2007.7 -35.6,-534.9 -1915.73,-425 -1915.73,-425 0,0 -18.44,435.8 -18.44,482.6 0,46.8 1161.87,63.5 1147.57,244 -14.1,180.5 -303.2,569.4 -303.2,569.4 0,0 -169.6,-1774.9 -169.6,-2049 0,-274.2 37.8,-1391.3 37.8,-1391.3 0,0 -420.1,-102.2 -1580.59,83.9 0,0 -1251.94,158.7 -1001.58,578.6 189.31,317.5 88.97,2690.9 60.49,2704.3 -28.46,13.3 -236.18,-819.1 -186.31,-934.8 49.83,-115.8 435.24,-1349.1 435.24,-1349.1 0,0 -94.34,-25.2 -420.52,-266.4 0,0 -691.74,1523.9 -698.86,1637.6 -7.12,113.7 359.4,2223.1 631.13,2336.8 139.06,58.2 522.76,173.8 853.47,269.9 300.19,87.2 561.86,125.5 561.86,125.5 l 631.71,0.5"
         style="fill:#fab46c;fill-opacity:1;fill-rule:nonzero;stroke:none"
         id="path452" />
      <path
         d="m 10595,13651.1 -20.9,3.6 c 1.1,5.5 105.8,544.4 -42.9,849.9 l 19.3,8.3 c 151.6,-311.3 45.6,-856.3 44.5,-861.8"
         style="fill:#e0a05f;fill-opacity:1;fill-rule:nonzero;stroke:none"
         id="path454" />
      <path
         d="m 10591,13759.3 c -0.6,4.1 -61.9,421.8 -196,578.3 l 16.5,12.5 c 137.9,-160.8 198,-570.8 200.5,-588.2 l -21,-2.6"
         style="fill:#e0a05f;fill-opacity:1;fill-rule:nonzero;stroke:none"
         id="path456" />
      <path
         d="m 9089.49,9423.9 -13.18,15.7 c 2.31,1.6 230.82,174.3 341.7,477.8 l 20.09,-6.5 c -112.94,-309.3 -346.23,-485.2 -348.61,-487"
         style="fill:#4668a2;fill-opacity:1;fill-rule:nonzero;stroke:none"
         id="path458" />
      <path
         d="m 9119.37,9441.1 -12.85,15.9 c 2.72,1.9 272.47,194.7 369.86,384.1 l 19.09,-8.7 c -99.6,-193.8 -364.83,-383.3 -376.1,-391.3"
         style="fill:#4668a2;fill-opacity:1;fill-rule:nonzero;stroke:none"
         id="path460" />
      <path
         d="m 9472.18,17190.3 c 0,0 603.32,-89.3 511.36,-975.6 -91.79,-886.5 -624.22,-813.8 -659.78,-812.9 -35.56,0.9 -534.51,-16.2 -573.4,1066 0,0 -16.96,800.3 721.82,722.5"
         style="fill:#eea886;fill-opacity:1;fill-rule:nonzero;stroke:none"
         id="path462" />
      <path
         d="m 9753.79,15662.9 c 0,0 -14.65,-377.9 22.88,-456.9 37.62,-78.9 -499.66,-319.1 -826.16,-36.6 0,0 78.86,396.2 56.93,536.7 -21.94,140.4 746.35,-43.2 746.35,-43.2"
         style="fill:#eea886;fill-opacity:1;fill-rule:nonzero;stroke:none"
         id="path464" />
      <path
         d="m 9992.92,16465 c 0,0 66.08,66.3 90.28,-0.8 24.2,-67.1 -90.11,-360.5 -94.23,-380.3 0,0 -12.02,-26 -27.83,-11.7 -15.88,14.3 31.78,392.8 31.78,392.8"
         style="fill:#eea886;fill-opacity:1;fill-rule:nonzero;stroke:none"
         id="path466" />
      <path
         d="m 8769,16476.2 c 0,0 -64.66,67.4 -90.28,0.8 -25.62,-66.6 83.9,-363.7 86.37,-381.9 0,0 11.52,-26.2 27.66,-12.2 16.14,14 -23.75,393.3 -23.75,393.3"
         style="fill:#eea886;fill-opacity:1;fill-rule:nonzero;stroke:none"
         id="path468" />
      <path
         d="m 9992.68,16329 -86.36,-108.4 c 0,0 2.39,237.7 -11.44,275 -13.83,37.3 -35.07,151.1 -46.68,178 -11.6,26.9 -518.02,160.1 -965.31,-38.9 0,0 19.63,-170.9 -23.21,-186.2 -42.85,-15.2 -21.9,-278.3 -21.9,-278.3 l -70.96,75.1 c 0,0 -108.68,682 -81.87,753.1 26.84,71.1 112.41,498.4 1030.15,244.7 0,0 286.1,57 343.5,-128.6 57.4,-185.5 -65.92,-785.5 -65.92,-785.5"
         style="fill:#665249;fill-opacity:1;fill-rule:nonzero;stroke:none"
         id="path470" />
      <path
         d="m 9011.05,12757.1 -25.47,256.4 c -7.62,77.1 57,143.7 139.46,143.7 h 301.62 c 79.68,0 143.32,-62.3 139.85,-137.1 l -28.39,-619.7 -474.17,-18.1 -52.9,374.8"
         style="fill:#545554;fill-opacity:1;fill-rule:nonzero;stroke:none"
         id="path472" />
      <path
         d="m 9358.33,15392.7 c -47.99,0 -90.63,7.6 -126.6,18.1 -121.92,35.6 -194.08,109.5 -197.13,112.6 l 10.53,8.9 c 0.7,-0.7 73,-74.5 191.37,-108.9 156.33,-45.4 322.45,-1.6 480.49,126.8 l 9.3,-10.1 c -139.36,-113.1 -265.88,-147.4 -367.96,-147.4"
         style="fill:#c58c71;fill-opacity:1;fill-rule:nonzero;stroke:none"
         id="path474" />
      <path
         d="m 9995.8,12585.8 c 0,0 -239.54,-37.4 -267.78,-0.8 -28.31,36.7 -95.65,127.4 -125.29,143.4 -29.63,16.1 -282.1,10 -328.03,-5.2 -45.85,-15.2 -84.46,-76.2 -150.07,-95.1 -65.58,-19 -174.9,-178.8 -128.47,-260.1 46.47,-81.2 227.75,-201.5 297.56,-201.1 69.63,0.4 371.99,80.7 405.41,77.3 33.42,-3.3 283.58,-23.4 283.58,-23.4 0,0 55.59,255.7 13.09,365"
         style="fill:#eea886;fill-opacity:1;fill-rule:nonzero;stroke:none"
         id="path476" />
      <path
         d="m 9758.23,12630 18.44,-482.6 488.73,63.9 -94.4,418.7 h -412.77"
         style="fill:#fab46c;fill-opacity:1;fill-rule:nonzero;stroke:none"
         id="path478" />
      <path
         d="m 8490.32,3610.6 23.13,199.6 c 0,0 -318.43,-78.1 -666.92,-43.2 l 33.29,-195 c 0,0 316.66,-119.5 610.5,38.6"
         style="fill:#3c5c8f;fill-opacity:1;fill-rule:nonzero;stroke:none"
         id="path480" />
      <path
         d="m 9050.9,3614.2 c 0,0 -45.9,98.5 11.52,303.5 0,0 335.43,-158.3 706.1,-91.1 l -68.32,-222.1 c 0,0 -165.46,-183 -649.3,9.7"
         style="fill:#3c5c8f;fill-opacity:1;fill-rule:nonzero;stroke:none"
         id="path482" />
      <path
         d="m 9759.71,12620.1 -2.96,19.8 c 3.95,0.5 399.35,53 698.15,86.4 l 2.5,-19.8 c -298.6,-33.4 -693.73,-85.9 -697.69,-86.4"
         style="fill:#e0a05f;fill-opacity:1;fill-rule:nonzero;stroke:none"
         id="path484" />
      <path
         d="m 10210.6,12123.6 c -201.5,0 -431.38,13.7 -434.67,13.9 l 1.4,19.9 c 4.61,-0.3 460.97,-27.5 648.87,-5 l 2.7,-19.8 c -55.8,-6.7 -134.6,-9 -218.3,-9"
         style="fill:#e0a05f;fill-opacity:1;fill-rule:nonzero;stroke:none"
         id="path486" />
      <path
         d="m 7976,11016.2 -21.12,1.9 c 0.49,4.7 50.44,469.6 32.56,612.7 l 21.09,2.4 c 18.13,-145.4 -30.46,-597.9 -32.53,-617"
         style="fill:#e0a05f;fill-opacity:1;fill-rule:nonzero;stroke:none"
         id="path488" />
      <path
         d="m 10138,6118.7 c -203.2,168.7 -310.29,709.4 -314.74,732.3 l 20.91,3.6 c 1.07,-5.6 110.14,-556.8 307.83,-720.9 l -14,-15"
         style="fill:#4668a2;fill-opacity:1;fill-rule:nonzero;stroke:none"
         id="path490" />
      <path
         d="m 9889.45,6312.1 c -53.92,207.1 -49.88,463.5 -49.81,466 l 21.24,-0.3 c -0.08,-2.5 -4.11,-256.4 49.23,-460.9 l -20.66,-4.8"
         style="fill:#4668a2;fill-opacity:1;fill-rule:nonzero;stroke:none"
         id="path492" />
      <path
         d="m 7975.54,13446.6 -20.21,6 c 1.15,3.5 117.2,352.2 92.92,598.6 l 21.13,1.9 c 24.7,-250.5 -92.63,-603 -93.84,-606.5"
         style="fill:#e0a05f;fill-opacity:1;fill-rule:nonzero;stroke:none"
         id="path494" />
      <path
         d="m 8565.45,15064.5 c -2.96,-1.3 -4.26,-4.6 -4.14,-9.7 -22.55,-79.3 734.63,-1104.5 734.63,-1104.5 250.08,-412.1 786.26,1164.9 786.26,1164.9 0,0 -629.36,324.8 -1516.75,-50.7"
         style="fill:#eea886;fill-opacity:1;fill-rule:nonzero;stroke:none"
         id="path496" />
      <path
         d="m 9122.91,13009.4 c 0,-19.8 -17.04,-35.8 -38.04,-35.8 -21.01,0 -38.09,16 -38.09,35.8 0,19.7 17.08,35.7 38.09,35.7 21,0 38.04,-16 38.04,-35.7"
         style="fill:#979797;fill-opacity:1;fill-rule:nonzero;stroke:none"
         id="path498" />
    </g>
  </g>
</svg>
